<svg xmlns="http://www.w3.org/2000/svg" viewBox="-350 -200 760 680" width="612" height="792">
    <path d="M120.41-103.667c1.41.281.789.079 1.884.534 4.256 2.003-17.273 13.768-13.017 17.524 4.256 3.755 8.261 1.251 11.265 1.251 3.004 0 8.261-.25 9.763 1.502 1.502 1.753-6.008 3.255-5.507 5.508.5 2.253 2.753 9.513 0 10.764-2.754 1.252-3.255-6.008-7.01-5.757-3.755.25-5.257 7.009-8.762 7.259-3.504.251-9.012-2.503-11.265 1.753-2.253 4.255-.5 7.26-1.752 9.513-.566.893-2.635 4.964-3.237 10.765-.601 5.801 22.615 18.275 29.708 18.891 7.092.615 17.187-6.082 25.661-6.419 10.272 0 12.876-13.046 15.184-8.134 2.308 4.913 1.34 8.195-.447 19.204-.235 1.382-.101.65-.41 2.194.674-1.215 1.914-1.777 3.165-2.194 5.922-1.34 10.644 3.032 16.449-4.019 5.806-7.051 1.624-16.173-2.233-11.612-3.857 4.561-5.871 8.837-8.295 6.699-2.423-2.138-3.316-5.359 0-9.378 9.588-11.619 2.368-3.127 4.438-6.699 2.071-3.573 1.624-10.272 6.09-10.719 4.386-.616 1.373-5.868 6.252-6.252l.891.102c.543.251 1.134.418 1.629.755 3.116 2.127 6.387 9.406 9.985 12.988 5.36 4.912 6.253 10.907 14.291 17.065 8.039 6.158 12.153 6.604 12.153 13.303 0 6.699.799 6.833 9.284 8.776 8.486 1.943 13.57-.02 5.445 9-8.124 9.02-.532 8.127-10.804 10.36-10.272 2.233-12.951 5.359-17.417 5.359-4.466 0-8.932-8.932-9.825 0-.894 8.932-3.573 12.505 4.912 11.612 8.486-.894 13.586-4.02 18.405-.447 4.818 3.573 10.349 8.039 14.729 6.699 4.38-1.34 8.761-6.252 4.38-8.485-4.38-2.233-8.313-4.466-4.38-7.146 3.934-2.68 5.72 10.718 10.186 3.126 4.466-7.592-7.592-6.611-.893-13.844 6.699-7.234 14.291-3.573 13.398 5.359-.893 8.932 1.34 6.252 4.913 5.359 3.572-.893 7.592 0 8.038 3.126.447 3.126 3.573.893 7.592-1.786 4.02-2.68 6.7 0 7.593.893.893.893 3.126 13.398 7.592 9.825 4.466-3.573 12.058-5.806 14.291-4.019 2.233 1.786 5.806 1.34 11.165 1.34 5.359 0 10.718-1.34 8.932 2.679-1.786 4.02-14.291 11.612-16.078 13.398-1.786 1.787-8.932-2.49-10.718 1.34-1.786 3.83-11.611 9.825-12.058 14.738-.447 4.912-3.573 14.291-1.787 16.524 1.787 2.233 6.7 5.806 5.36 11.165.877 5.29-.31 4.17 2.017 6.697 17.219 20.963-215.693 51.008-217.862 74.867-.19 3.44-1.175 6.71-2.227 9.961 2.299.231 1.289.132 3.03.299 2.751.251 3.752 5.758 6.005 7.26 2.253 1.502 4.757 13.018 2.504 18.275-2.253 5.257-7.761 17.774-5.007 26.035 2.754 8.261 2.003 16.022 9.012 16.022 7.01 0 4.506-7.26 12.767 1.001 8.262 8.261 15.021 12.517 17.524 19.777 2.504 7.26 8.762 14.019 14.269 14.019 5.508 0 4.757-3.255 9.764-2.754 5.006.501 7.259 12.267 7.51 20.027.25 7.761 4.256 16.272 9.262 23.782 5.007 7.511 3.449 13.268 3.449 19.777s5.313 10.264 4.312 14.269c-1.001 4.006-12.267 9.263-18.525 8.262-6.259-1.002-9.727-13.769-19.258-11.516-9.531 2.253-11.033 8.512-6.527 17.774 4.506 9.263 13.518 22.28 14.019 31.793.501 9.513 8.481 18.024 14.269 25.034 5.788 7.009 7.761 7.009 7.761 16.522 0 9.513 3.949 12.017 3.949 16.773s-3.373 7.224-3.373 7.224c-5.669 1.308-12.647 2.18-12.647-7.414s-.436-20.933-5.233-20.933 5.669-.872-5.234 0c-10.902.872-17.88 5.233-17.444-.872.436-6.106 10.46-.872 10.46-10.903 0-10.03-11.332-21.805-13.948-30.963-2.617-9.158-8.723-9.594-8.723-19.625 0-10.03-7.413-17.008-12.21-18.752-4.798-1.745-6.542 4.797-9.159 7.414-2.616 2.616-7.49 2.18-12.249 3.052-4.759.872-19.15 6.978-24.819 1.745-5.67-5.234-.873-9.158 4.797-8.722 5.669.436 20.022 1.308 20.022-3.053s-5.7-4.797-8.247-10.903c-2.548-6.105-1.354-6.636 4.797-14.827 6.151-8.192-.873-7.85-5.234-12.211-4.361-4.361-15.699-13.955-16.572-17.444-.872-3.489 6.473.436 10.467 2.18 3.994 1.745 12.088 11.339 14.789 10.903 2.701-.436 3.527-9.158 5.708-10.03 2.18-.873-3.007-2.617-3.007-9.595 0-6.977-.046-8.722-4.843-11.775-4.797-3.052-10.03-10.902-13.083-11.338-3.053-.436-6.106 1.186-9.158-4.858-3.053-6.045-.811-10.903-2.018-11.037-1.207-.135-6.17 1.743-6.304 4.829-.135 3.085-1.744 8.718.268 11.669 2.012 2.951 1.878 6.841-.134 6.841s-6.036-.402-7.378-4.292c-1.341-3.89-3.422-4.292-5.467-4.158-2.044.134-4.861.096-4.727-1.878.134-1.974 6.975-5.902 7.511-8.048.537-2.147-6.403-8.105-11.199-9.064-3.147-.63-12.162 3.501-20.866 1.918-6.598-1.199-10.074-30.699-16.07-30.459-8.954.358-4.201 5.635-3.357 12.232 1.099 8.603 5.773 18.721 3.357 23.744-2.804 5.831-9.833 10.073-10.073 12.711-.24 2.638 7.195 12.232 6.236 15.35-.959 3.118-6.955 4.317-8.874 4.317-1.919 0-6.955-4.317-8.155-11.033-1.199-6.715-2.398-9.56-5.995-13.642-3.598-4.083-3.118-5.785-3.118-10.581 0-4.797-10.553 2.158-15.83 2.878-5.276.719-9.593 6.475-11.032 9.353s-5.062 3.838-8.887 3.838-9.581.719-8.622 2.638c.96 1.919 1.2 5.756-1.199 8.394-2.398 2.638-7.435 5.277-7.435 8.874 0 3.598 7.195 16.789 6.716 20.147-.48 3.357.959 17.268-.96 21.585-1.918 4.317-8.154 10.073-13.67 7.675-5.517-2.398-8.635-10.793-.72-16.789 7.915-5.996 12.712-8.874 10.073-15.829-2.638-6.955-8.874-7.435-11.752-12.711-2.878-5.277-5.996-10.553 0-12.472 5.996-1.919 10.793-1.919 10.553-5.516-.24-3.598-5.276-4.797-1.439-9.114 3.837-4.317 6.236-.914 5.756-6.453-.479-5.539-8.154-12.734-1.199-10.576 6.955 2.159 13.431 4.557 20.866 3.598 7.435-.96 23.744-7.915 26.382-7.435 2.638.48 11.033 14.413 15.83 14.413 4.796 0 7.914-1.702 5.276-5.299-2.638-3.598-12.711-6.716-11.272-12.232 1.439-5.516.479-10.553.959-13.671.48-3.118 5.037-2.699 7.675-6.146s5.996.15 7.435-6.086c1.439-6.235.378-8.975-3.118-12.471-4.557-4.557-16.549-9.594-24.464-6.716-7.914 2.878-24.223 16.549-33.817 13.911-9.593-2.638-6.955-9.456-19.907-16.96-12.951-7.504-24.463-16.138-24.223-4.146.24 11.992.479 24.464-1.199 29.5-1.679 5.037-14.783 13.671-3.195 21.346 11.589 7.675 13.268 7.195 9.91 16.069-3.358 8.874-11.992 10.793-15.829 11.512-3.838.72-6.236-1.199-6.236 2.399 0 3.597 6.955 6.544 8.634 8.874 1.679 2.33 3.88.24 11.174 3.837 7.294 3.598 5.135 12.951 2.017 16.549-3.118 3.598-7.108 6.955-9.67 9.354-2.562 2.398 1.756 3.954 1.756 7.195 0 3.24-2.399 6.476-5.517 6.476-3.118 0-5.516-4.078-5.516-6.236 0-2.159 1.439-3.998 1.439-6.716s-.959-16.549-4.077-18.707c-3.118-2.159-9.354.959-10.073-2.399-.72-3.357 6.715-11.032 3.357-14.39-3.357-3.358-11.752-7.195-14.15-4.557-2.399 2.638-13.191 4.077-14.63 4.077s-2.399-2.878-4.078-2.878c-1.678 0-7.195 1.679-11.032 1.679-3.838 0-4.077-2.638-5.037-2.638-.959 0-3.597 1.199-5.276 1.199-1.679 0-2.159-2.158-5.756-2.158-3.598 0-13.191 7.195-19.187 3.357-5.996-3.837-10.793-7.138-10.793-8.845 0-1.707 2.878-2.621 2.638-4.083-.24-1.462-2.878-.982-6.236-4.34-3.357-3.358-1.439-5.276-.959-7.435.48-2.158-1.292-4.077-4.123-4.557-2.832-.48-4.991-5.756-7.869-5.756s-2.159 2.398.24 5.276c2.398 2.879 4.557 6.476 3.358 8.395-1.2 1.919-.96 3.358-4.797 3.118-3.838-.24-2.638-2.159-4.797-1.919-2.159.24-1.919 2.638-3.837 2.159-1.919-.48-3.838-7.915-8.395-7.915-4.557 0-6.715 3.118-10.313 3.118-3.597 0-9.114.719-10.793 4.797-1.678 4.077-3.597 9.142-4.796 9.142-1.2 0-4.078 4.288-1.2 5.967 2.879 1.679 10.074.24 10.074 3.118s-3.358 7.538-5.517 9.046c-2.158 1.507-5.516-2.09-7.674-2.09-2.159 0-8.395.959-10.793-.48-2.399-1.439-3.838-5.516-2.159-11.992 1.679-6.476 10.793-10.073 11.513-12.951.719-2.878-.48-7.675-1.439-11.273-.96-3.597.479-12.168 2.878-16.757 2.398-4.588 3.357-10.344 6.715-10.344 3.358 0 7.435 8.634 9.833 7.195 2.399-1.439.48-4.078 0-5.756-.479-1.679-1.678-6.716.24-8.155 1.919-1.439-2.398-10.073-4.077-11.992-1.679-1.919-3.118-6.476-.959-7.195 2.158-.72 7.195 5.756 11.752 5.996 4.557.24 12.232 1.679 13.191 3.837.959 2.159-2.159 10.313.959 10.553 3.118.24 3.598-9.353 4.317-12.232.72-2.878 1.679-7.195-.24-11.752-1.918-4.557-2.737-8.874-5.516-8.634-2.779.24 0 5.516-6.955 5.516s-8.874-7.914-11.273-9.113c-2.398-1.2-9.833-10.553-9.833-18.228 0-7.675 3.838-3.118 6.955-2.399 3.118.72 7.196 1.919 8.395 5.037 1.199 3.118.719 6.236 4.557 6.716 3.837.479 10.313-2.159 13.431-1.919 3.118.24 2.398 9.833 5.756 9.354 3.358-.48 8.634-1.679 11.512.719s1.919 8.634 4.317 9.594c2.399.959 6.955 5.756 5.996 7.195-.959 1.439-13.763-2.228-12.757.719 1.005 2.947 1.872 7.915 0 9.594-1.873 1.679-.194 3.118 2.924 4.317 3.118 1.199.959 5.276.959 8.634 0 3.358 5.037 7.195 4.557 10.553-.48 3.358-2.159 9.594 2.638 10.073 4.797.48 5.517-1.439 9.114-1.199 3.598.24 7.435 11.033 7.435 13.911s4.797 6.715 8.394 6.715c3.598 0 16.07-5.276 20.866-5.276 4.797 0 15.59 1.679 18.468 1.918 2.878.24 15.11 2.159 20.386 2.159 5.277 0 11.109 11.033 16.309 5.756 5.2-5.276 1.199-11.032-.24-13.671-1.439-2.638-5.996-5.036-5.996-11.032s-2.398-4.797-5.996-4.797c-3.597 0-5.036 2.638-7.674 3.118-2.639.48-2.399-2.159-4.078-4.317-1.678-2.159-2.158-1.168-7.674-1.168-5.517 0-6.236-2.909-6.956-6.747-.719-3.837-2.638-4.797-4.797-6.476-2.158-1.678.72-4.317 3.358-5.995 2.638-1.679 10.793-3.838 10.793-9.834 0-5.996.24-6.715-5.037-7.435-5.276-.719-12.471-2.398-13.67 0-1.2 2.399-8.155 5.996-10.793 5.756-2.638-.24-7.675-2.878-12.712-2.878-5.036 0-6.715 2.399-11.752 2.399-5.036 0-8.154-4.797-8.634-4.797-.48 0 .24-7.435 4.797-8.155 4.557-.719 9.354.24 13.431.24s8.634-6.236 9.354-7.435c.719-1.199.479-9.114 7.674-9.114s10.873 3.54 15.133 6.903c4.261 3.363 16.593-3.812 16.817-6.278.225-2.467 2.243-11.884-.672-12.333-2.915-.448-12.109-3.363-12.109-5.83 0-2.466 4.709-5.83 8.745-4.708 4.036 1.121 2.467 6.261 4.933 6.261 2.467 0 6.727-4.692 11.436-4.019s11.211 13.678 15.92 14.35c4.709.673 14.437-2.496 17.265-4.26 12.282-7.66 21.741 5.46 26.474-3.605 4.732-9.065 1.876-10.015-4.055-13.178-5.931-3.163 5.416-9.086 7.789-13.04 2.372-3.953-7.464.779-11.814.779-4.349 0-4.408-4.91-9.153-6.492-4.744-1.581-3.063-6.998-7.412-7.789-4.349-.791-5.805 5.621-11.34.694-5.536-4.928-.61-13.286 4.925-16.845 5.536-3.558 6.333-4.523 8.766-4.47 7.447.162 10.367 10.728 17.484-1.134 1.153-1.921 7.079 1.004 6.799-.485-1.942-10.361 1.674-5.627 4.281-11.591.989-2.263-1.156-7.918.128-11.793.286-.861 3.205-1.923 5.143-3.976 1.86-1.97 6.012 5.5 6.961 1.295 1.133-5.018 6.46-4.475 6.476-11.494.014-6.326 15.296-11.808 23.924-18.619 2.224-1.756 4.921.937 7.5-3.125 2.847-4.488.085-8.309-5.036-8.53-5.121-.22-5.232.602-5.746-.611-1.015-2.397 3.509-4.908-1.863-7.483-7.043-3.376 2.987-7.366 2.723-8.689-.703-3.515-.703-5.39 2.812-10.937.485-.765-1.614-1.706-1.406-6.328.313-6.953 2.792-10.916.156-11.875-1.715-.624-.33-5.857-2.89-9.375-.932-1.28-3.84-1.228-5.781-1.953-1.557-.581-2.244-1.908-2.657-2.969-1.248-3.204 5.256-4.21 2.813-7.578-5.781-7.968-11.016 1.797-17.031-2.968-2.332-1.848-1.406-5.078-4.688-7.188-4.86-3.124-11.875.235-11.25-6.796.351-3.939 1.279-6.286-1.093-9.844-2.373-3.558-5.905-6.69-1.172-9.062 1.33-.667 3.286.219 5.078-.625 2.054-.968 3.828-5.782 6.015-6.719 2.695-1.154 5.46-.076 7.5-.703 1.016-.313 4.922-3.438 9.61-3.516 1.664-.028-1.069 5.846.312 5.703 7.578-.781 3.473 3.06 5.313 3.906 2.36 1.087 3.984-3.203 7.265.391 1.223 1.34 5.99.897 6.406 3.281.457 2.614-4.531 6.094-1.875 8.828.673.693 3.611.41 4.844 1.406 1.648 1.332.391 3.516 2.734 4.375 2.588.949 3.047-6.172 3.047-8.749 0-3.954 6.847-2.779 8.429-5.547 1.581-2.767-7.512-9.093-1.977-9.489 5.535-.395 8.02-.149 10.333.16 2.313.31 3.707 7.435 7.269 7.435 3.562 0 7.434-2.788 9.448-1.239 2.013 1.549 5.73 3.407 9.757 3.097 4.027-.309 7.9-1.858 7.745-5.266-.155-3.407-2.324-5.111 2.478-5.111 4.801 0 8.518 6.505 11.306 6.505 2.788 0 13.94-1.549 18.741-1.703 4.802-.155 10.068-6.196 13.785-7.745 3.717-1.548 5.266.155 9.138-1.394 3.872-1.548 4.337-6.35 8.518-6.35 4.182 0 7.482 3.373 9.485 1.12 2.002-2.253 2.753-7.51 10.263-7.761 1.932-.035 3.739-.459 5.426-1.43 3.155-1.816.345-.816 2.954-1.607zM47.296 421.105c-.944.367-1.207.471-1.361 1.558-.324 3.244 3.893 3.568 3.244 8.109-.649 4.541-1.946 4.217.649 7.136 2.595 2.92 4.533-5.811 6.811-5.19 3.568.973 3.244.649 3.244-2.595 0-3.243-3.244-6.163-6.163-7.136-2.085-.766-4.158-1.889-6.424-1.882zm2.794-33.951c-2.3.181-6.14.337-6.425 3.397 0 2.595 5.83 7.504 8.109 9.082 4.217 2.919 8.117 3.244 8.117.649s-1.305-3.568-2.927-6.488c-1.622-2.919-1.947-5.838-5.515-6.487l-1.359-.153zm26.626 1.882c-2.051.351-1.207.129-2.561.541-1.946.649-1.232 5.191 3.568 6.812 6.724 2.271 6.773-2.27 4.072-5.19-1.543-1.408-2.89-2.243-5.08-2.163zm-359.682-106.339l-.425.029c-1.985.249-4.467 1.614-2.234 3.475 2.234 1.861 4.964 2.73 4.964 3.226 0-3.311 9.431.745 7.693-2.482-2.089-3.186-6.446-4.045-9.998-4.248zm32.86-14.31c-2.506.384-3.575 1.27-4.993 3.42-1.241 1.876-1.81 7.735.745 6.949 3.226-.993 11.733-.993 13.153-2.979 1.419-1.985.496-2.233-4.715-5.846-1.292-.811-2.612-1.539-4.19-1.544zm-51.217-120.894c-2.819 1.06-4.773 3.398-7.134 5.189-3.971 2.978-2.73 9.183-.993 10.424 1.738 1.24 5.957.248 10.672-.993 0 0 4.964-.993 4.964-4.219 0-3.226-2.482-5.708-4.964-9.183-.7-.828-1.38-1.383-2.545-1.218zM146.454-94.696c-.16.036-.361-.004-.48.109-.294.28-.088 1.443-.102 1.758-.105 2.372.04 1.728-.768 3.393-2.112 3.016-4.524 1.207-4.524 3.619 0 2.413 3.619 4.223 5.73 3.921 2.111-.302 9.952-2.714 13.27-2.714 3.317 0 3.317 4.333 3.317 9.952s-2.714 3.575-2.714 6.032c0 2.456 1.206 7.137 3.016 7.137 4.825 0 6.031-2.312 6.333-5.931.302-3.619 2.023-5.428 6.46-5.127 4.438.302 7.714 1.464 12.238 3.016 4.524 1.552 8.223-1.552 8.223-4.825 0-3.274-3.699-2.715-9.128-2.715-5.428 0-6.031-3.206-7.841-6.031-1.809-2.826-5.428-1.81-7.929-3.016-2.502-1.207-2.325-7.54-5.922-7.54-3.597 0-4.847 2.111-8.768 2.413-3.92.301-4.523-.302-8.746-2.714-1.007-.542-.456-.287-1.665-.737zm-10.43 14.482l-.608.014c-2.329.851-1.359.361-2.979 1.32-2.714 1.809-4.058 9.267-.603 7.539 5.428-2.714 6.25-4.222 6.25-6.936-.19-1.415-.584-1.867-2.06-1.937z" fill="blue" data-name="federation"/>
    <path d="M-65.811 58.018c5.988-.599 4.108.299 6.437.299 2.328 0 1.272-2.844 8.757-.973.989.247 2.516 1.136 3.892.749 2.1-.59 5.015-1.348 6.138-1.572 1.497-.299 1.793.158 4.192.748.704.174 1.422-.598 2.104-.296 1.022.454 2.012 1.467 2.387 1.045 1.761-1.987 4.202-2.395 5.44-4.204 1.274-1.861 3.232-6.071.772-7.997-5.165-4.041-5.776.933-7.859.075-1.108-.456-1.477-2.068-2.994-3.218-1.335-1.012-3.513-1.756-6.587-2.695-1.641-.501-1.497 2.096-4.566 2.096-3.553 0-11.976-3.428-11.976-6.737 0-3.308-.778-8.196-4.332-10.157-3.553-1.96-7.719-5.759-9.312-5.391-1.593.367-5.024 1.838-6.74 1.838-1.715 0-6.739-2.574-8.7-2.574-1.961 0-2.941 3.064-4.044 3.922-1.102.857-5.636.857-6.617 1.96-.98 1.103-4.779 1.961-5.759 3.186-.98 1.225 0 3.676-1.593 5.024-1.593 1.348-1.838 3.921-1.715 6.372.122 2.451-3.676 2.696-3.186 7.597.49 4.902 4.166 6.372 5.759 7.965s5.514 5.514 8.823 5.637c3.308.122 12.253-4.289 15.194-4.289 2.941 0 11.207 2.078 16.085 1.59z" fill="#DFDFDF"/>
    <path d="M-65.811 58.018c5.988-.599 4.108.299 6.437.299 2.328 0 1.272-2.844 8.757-.973.989.247 2.516 1.136 3.892.749 2.1-.59 5.015-1.348 6.138-1.572 1.497-.299 1.793.158 4.192.748.704.174 1.422-.598 2.104-.296 1.022.454 2.012 1.467 2.387 1.045 1.761-1.987 4.202-2.395 5.44-4.204 1.274-1.861 3.232-6.071.772-7.997-5.165-4.041-5.776.933-7.859.075-1.108-.456-1.477-2.068-2.994-3.218-1.335-1.012-3.513-1.756-6.587-2.695-1.641-.501-1.497 2.096-4.566 2.096-3.553 0-11.976-3.428-11.976-6.737 0-3.308-.778-8.196-4.332-10.157-3.553-1.96-7.719-5.759-9.312-5.391-1.593.367-5.024 1.838-6.74 1.838-1.715 0-6.739-2.574-8.7-2.574-1.961 0-2.941 3.064-4.044 3.922-1.102.857-5.636.857-6.617 1.96-.98 1.103-4.779 1.961-5.759 3.186-.98 1.225 0 3.676-1.593 5.024-1.593 1.348-1.838 3.921-1.715 6.372.122 2.451-3.676 2.696-3.186 7.597.49 4.902 4.166 6.372 5.759 7.965s5.514 5.514 8.823 5.637c3.308.122 12.253-4.289 15.194-4.289 2.941 0 11.207 2.078 16.085 1.59z" fill="brown" data-name="cardassian"/>
    <path d="M-52.428 22.994c-2.927.034-1.914-2.898-1.367-3.718.547-.82.984-1.531.875-2.461-.109-.929-2.299-1.486-3.382-1.558-1.315-.088-3.234-.41-4.163-1.011-.93-.602-1.203-3.062-1.476-4.046-.274-.985-1.477-3.281-1.367-4.101.109-.82 3.335-2.187 4.702-1.914 1.367.274 2.569 3.062 2.569 3.062s2.68.656 3.554 1.094c.875.437 2.953 1.421 2.953 1.421s2.843-.383 3.772.164c.93.547 5.114 1.666 5.06 4.454-.055 2.788-7.247 5.333-7.247 5.333s.219 3.226-4.483 3.281z" fill="aqua" data-name="tzenketh"/>
    <path d="M-109.149 23.368c-.733 2.785-12.048-6.11-13.576-11.879-1.527-5.77-5.43-23.928-9.673-26.304-4.242-2.376-10.012-2.545-14.085 1.697-4.072 4.243-7.466 7.297-11.539 5.94-4.073-1.358-3.564-5.091-2.037-6.449 1.528-1.358 7.976-2.545 8.825-5.6.848-3.055 8.824-10.012 9.164-15.273.339-5.261-5.77-7.467-11.37-6.788-5.6.679-9.504 8.824-20.195 9.503-10.691.679-4.412 13.916-17.139 13.576-12.728-.339.339-8.824-1.697-14.594-2.037-5.77-6.619-9.164-11.37-10.012-4.752-.849-7.806-8.994 3.394-8.316 11.2.679 11.539 13.576 15.273 14.255 3.733.679 4.073-4.242 6.957-4.242 2.885 0 7.298-.17 7.976-2.037.679-1.866-2.206-7.297-4.751-7.806-2.546-.509-9.334-3.903-2.546-6.788 6.788-2.885 4.922 2.376 8.316 4.752 3.394 2.376 5.43.848 6.957-1.358 1.528-2.206 2.376-9.842 3.225-10.352.848-.509.509-3.394-3.055-4.921-3.564-1.527-8.146-3.224-10.012-4.412-1.867-1.188 1.018-4.921-3.903-4.243-4.922.679-10.182 5.77-18.837 2.885s-15.952-6.279-13.067-11.2c2.885-4.921 10.861 4.412 19.346 4.073 8.485-.339 10.182-3.564 12.727-5.261 2.546-1.697 1.528-6.618 5.6-7.636 4.073-1.018 2.716-4.582.509-7.467-2.206-2.885-6.278-8.655-12.048-10.182-5.77-1.527-10.182-8.655-6.788-12.388 3.394-3.733 9.503-8.655 18.158-3.394 8.654 5.261 20.533 8.655 23.079 6.109 2.545-2.545-7.976-6.957-10.352-13.406-2.376-6.449.509-8.315-1.697-12.388s-6.109 6.279-13.406.679c-7.297-5.6-2.037-11.37-1.188-13.067.848-1.697 7.127-2.546 7.127-4.412 0-1.867-1.357-9.334 2.206-10.013 3.564-.678 4.922 13.067 8.485 14.085 3.564 1.019 4.752 1.528 6.449 2.206 1.697.679 6.449 7.976 13.406 6.11 6.958-1.867 7.976 1.527 9.673-1.188s-6.279-8.994-6.279-11.879 7.976-5.261 10.691-4.243c2.716 1.018 12.558 2.885 14.085-2.036 1.528-4.921 2.716-13.746 6.619-13.576 3.903.17 1.527 8.994 4.242 12.727 2.715 3.734 11.37 7.297 11.54 9.334.169 2.036-16.122 1.357-19.346 3.564-3.224 2.206-8.485 7.466-4.073 9.842 4.412 2.376 11.54-3.054 15.952-1.188 4.412 1.867 5.091 6.958 6.618 9.164 1.528 2.206 2.037 5.94-1.697 8.315-3.733 2.376-8.654 1.697-13.406-.509-4.752-2.206-12.388-6.109-14.085-3.733-1.697 2.376 2.036 7.297 9.843 11.03 7.806 3.734 9.333 4.582 8.315 8.655-1.018 4.073-16.461 2.036-13.916 8.485 2.546 6.449 16.292-3.055 21.892.509 5.6 3.564 6.957 17.819-1.697 19.346-8.655 1.527-21.382-6.788-24.946-1.358-3.564 5.431-4.921 25.455 10.521 28.679 15.443 3.225 12.897 5.94 11.031 8.825-1.867 2.885-18.498-8.146-22.57-6.618-4.073 1.527.339 11.03 3.563 16.291 3.225 5.26 2.885 9.673 5.091 12.218 2.206 2.546 8.994 5.6 13.067 9.503 4.073 3.903 2.885 10.352 4.243 12.388 1.357 2.037 9.673 9.337 6.957 10.778-2.715 1.441-9.503-3.99-11.539-7.723-2.037-3.733-5.94-14.425-10.861-12.218-4.921 2.206.679 7.806-1.527 11.2-2.206 3.394-10.352-2.206-12.219-.17-1.866 2.036 3.055 11.54 3.225 16.291.169 4.752 8.994 12.388 8.145 15.613z" fill="darkseagreen" data-name="breen"/>
    <path d="M29.801-5.609c-7.782-7.72-9.575-18.771-9.701-24.944-.126-6.173 1.134-10.961 3.402-15.244 2.267-4.283 7.558-9.7 10.33-10.33 2.771-.63 16.377-2.394 22.55-.504 6.173 1.889 14.992 7.055 17.638 7.307 2.645.252 12.598-1.008 15.117 1.007 2.52 2.016 3.15 5.796 3.654 5.922.504.126 9.831-4.796 9.831-8.901 0-4.105-3.193-14.026-1.368-14.938 1.824-.912 4.789-.228 5.815 2.965 1.026 3.193.114 18.586 2.509 19.156 2.394.571 14.367-15.735 16.648-17.788 2.28-2.052 6.841-5.245 8.324-2.85 1.482 2.394-12.201 22.805-15.166 24.857-2.965 2.053 7.754-2.28 12.315 1.027 4.561 3.306 11.403-5.246 12.657-7.412 1.254-2.167 12.201-3.877 12.999-8.21.798-4.333.798-8.096 3.763-8.096s8.78.798 11.631-1.026c2.85-1.825 7.069-4.675 9.35-4.561 2.28.114 6.043.684 8.894.228 2.851-.456 6.157-4.219 8.78-3.763 2.623.456 5.359 7.982 5.473 9.35.114 1.368 3.763 4.561 3.079 8.21-.684 3.649-2.623 2.281-3.991 2.167-1.368-.115-7.754-11.973-10.718-11.973-2.965 0-4.79 2.28-6.842 4.789-2.052 2.508-6.5.684-8.438 2.166-1.938 1.483.114 3.535-5.359 5.816-5.474 2.28-4.333-2.509-9.008.456-4.675 2.965-3.649 8.666-9.465 11.631-5.815 2.964-5.245.456-6.157 1.824-.912 1.368.114 2.965-2.053 3.763-2.166.798-4.219-.342-6.157 0-1.938.342-2.623 3.535-4.447 3.421-1.824-.114-4.561-2.167-6.728-1.597-2.166.57-7.982 4.333-7.639 10.833.342 6.499 8.78 20.981 7.981 28.849-.798 7.868-9.92 18.358-17.332 19.156-7.411.798-25.428-1.596-30.331-3.877-4.903-2.28-41.879-19.004-51.84-28.886z" fill="#DFDFDF"/>
    <path d="M29.801-5.609c-7.782-7.72-9.575-18.771-9.701-24.944-.126-6.173 1.134-10.961 3.402-15.244 2.267-4.283 7.558-9.7 10.33-10.33 2.771-.63 16.377-2.394 22.55-.504 6.173 1.889 14.992 7.055 17.638 7.307 2.645.252 12.598-1.008 15.117 1.007 2.52 2.016 3.15 5.796 3.654 5.922.504.126 9.831-4.796 9.831-8.901 0-4.105-3.193-14.026-1.368-14.938 1.824-.912 4.789-.228 5.815 2.965 1.026 3.193.114 18.586 2.509 19.156 2.394.571 14.367-15.735 16.648-17.788 2.28-2.052 6.841-5.245 8.324-2.85 1.482 2.394-12.201 22.805-15.166 24.857-2.965 2.053 7.754-2.28 12.315 1.027 4.561 3.306 11.403-5.246 12.657-7.412 1.254-2.167 12.201-3.877 12.999-8.21.798-4.333.798-8.096 3.763-8.096s8.78.798 11.631-1.026c2.85-1.825 7.069-4.675 9.35-4.561 2.28.114 6.043.684 8.894.228 2.851-.456 6.157-4.219 8.78-3.763 2.623.456 5.359 7.982 5.473 9.35.114 1.368 3.763 4.561 3.079 8.21-.684 3.649-2.623 2.281-3.991 2.167-1.368-.115-7.754-11.973-10.718-11.973-2.965 0-4.79 2.28-6.842 4.789-2.052 2.508-6.5.684-8.438 2.166-1.938 1.483.114 3.535-5.359 5.816-5.474 2.28-4.333-2.509-9.008.456-4.675 2.965-3.649 8.666-9.465 11.631-5.815 2.964-5.245.456-6.157 1.824-.912 1.368.114 2.965-2.053 3.763-2.166.798-4.219-.342-6.157 0-1.938.342-2.623 3.535-4.447 3.421-1.824-.114-4.561-2.167-6.728-1.597-2.166.57-7.982 4.333-7.639 10.833.342 6.499 8.78 20.981 7.981 28.849-.798 7.868-9.92 18.358-17.332 19.156-7.411.798-25.428-1.596-30.331-3.877-4.903-2.28-41.879-19.004-51.84-28.886z" stroke-width=".5" fill="green" data-name="romulan"/>
    <path d="M191.618 221.923c-5.866 1.072-16.057-14.681-16.515-18.351-.459-3.67.458-5.964-.918-10.093-1.376-4.129-9.634-17.892-15.139-12.387-5.506 5.505-9.635 5.964-12.846 5.505-3.211-.458-1.29-9.561-3.081-9.561-1.792 0-5.375 11.774-9.471 11.774-4.095 0-7.678-11.774-11.518-11.518-3.839.256-9.982 9.726-15.101 9.726-5.119 0-20.462-12.803-23.022-12.803-2.559 0-4.633 2.327-7.193 2.327-2.559 0-5.173-4.125-6.453-4.125-1.279 0-2.2 5.456-4.76 5.712-2.559.256-2.429-2.856-5.5-2.856-3.072 0-2.958 2.426-6.03.634-3.071-1.791-2.962-6.664-7.193-6.664-3.792 0 4.654 8.569-1.375 7.934-4.073-.429-6.111-8.295-6.241-11.107-.212-4.549-8.04-11.107-8.357-15.868-.154-2.312 4.159-1.337 5.183-3.385.381-.761 1.27-2.897 3.244-4.107 1.169-.717 3.307-.371 4.346-1.23 1.926-1.591.164-3.034 3.69-3.854 3.49-.812 8.416-2.314 5.857-7.945-2.56-5.631-8.77 1.025-12.335 1.057-9.184.082-5.672 3.13-7.975 3.385-.931.104-3.551-1.436-6.394-4.001-1.392-1.255-3.72-4.724-5.885-6.6-1.64-1.421-3.233-1.185-4.018-2.624-1.968-3.608 1.995-4.936 1.804-7.544-.146-1.994-5.517-4.082-5.576-5.658-.082-2.214 3.322-.879 4.264-2.706 2.706-5.248-1.326-1.08-3.198-2.952-2.05-2.05-.92-3.533-1.558-5.658-.645-2.15-2.05-4.364-2.05-5.412 0-5.631.82-8.938 6.628-13.243 2.085-1.545 5.668-3.926 11.421-5.205 3.017-.67 5.455-2.929 8.128-4.2 3.013-1.434-2.346-5.752 6.209-4.018 7.012 1.421 8.654-1.609 12.237.182 3.583 1.792 12.052 3.801 14.611 2.009 1.149-.804 3.397-1.559 4.666-4.386 1.27-2.828 3.461-.945 3.461-2.919 0-1.516-.058-3.054-1.004-4.383-1.291-1.813-1.497-4.794-1.552-7.488-.092-4.475 1.583-12.237 7.214-12.237 2.596 0 7.853.548 10.227-2.374 1.565-1.926 4.108-2.816 4.384-5.023.512-4.095 1.227-1.882 4.299-1.882 3.071 0 7.371 2.68 14.754.221 7.208-2.402 19.453-9.471 20.989-7.935 1.536 1.536 3.839 5.119 5.887 5.119 2.048 0 15.869 0 16.637 5.375.768 5.375-11.518 8.703-21.5 8.447-9.983-.256-14.078-3.072-15.614-.768-1.535 2.303-.512 3.839-1.023 5.375-.512 1.536-6.911 2.048-6.911 3.327 0 1.28 11.774 8.959 11.774 13.054 0 4.095-3.584 13.566-1.792 15.869 1.792 2.304 12.03-2.303 13.566-.256 1.535 2.048-6.399 11.263-2.304 14.59 4.095 3.327 5.887 5.631 8.959 2.304 3.071-3.328 3.839-8.959 6.143-10.495 2.303-1.535 6.398 1.024 8.446 1.024s5.094-9.958 7.286-12.15c2.192-2.192 8.455-1.566 12.213-1.879 3.759-.313 2.506 3.758 6.264 3.758 3.758 0 7.829-6.89 10.961-6.89 3.132 0 5.011 10.648 7.516 11.274 2.506.627 6.89-2.505 10.961 5.324 4.071 7.83 12.527 15.659 17.851 15.659s12.214-1.566 15.972-1.566c3.758 0 18.164 2.819 29.751 2.819 11.588 0 23.801-2.819 24.741-5.011.939-2.192-2.819-10.335-1.879-13.153.939-2.819 14.093-7.203 20.043-2.819 5.95 4.384 7.203 12.527 10.021 13.153 2.819.627 8.456-3.445 12.214 2.819 3.758 6.263 13.153 16.911 15.033 24.114 1.879 7.203 7.203 2.505 7.203 7.516s-.94 9.395 2.505 9.082c3.445-.313 15.032-5.011 17.851 2.506 2.818 7.516-.313 10.961-2.192 11.587-1.88.626-10.962-12.527-15.346-8.456-4.384 4.072 2.505 9.709 5.324 11.901s12.527 4.384 14.406 12.527c1.879 8.142-.313 8.769 0 11.274.313 2.505 5.95.313 6.89 5.011.939 4.697-2.569 4.858-1.231 7.981 1.339 3.123 8.477 9.518 8.477 13.98 0 4.461-6.543 21.712-9.666 25.133-3.123 3.42-10.262 3.569-12.79 3.867-2.528.297-4.313 3.718-6.544 3.718-2.23 0-10.41-.447-13.682.297-3.271.744-7.584 4.61-11.302 4.61s-11.154-5.205-11.154.744 14.128-.595 14.277 5.056c.149 5.651-12.046 2.231-16.359 5.503-4.313 3.272-9.221 3.866-14.128 1.636-4.908-2.231-16.359-6.098-22.01-5.503-5.652.595-14.426-1.933-14.724-3.272-.297-1.338-5.502 0-5.651-2.974-.149-2.974 5.8-3.421 5.8-8.328 0-4.908-.892-18.144-4.907-18.144-4.016 0-5.057 24.985-6.395 28.257-1.339 3.271-20.077 6.543-26.175 4.461-6.097-2.082-25.43-17.549-29.743-17.549-4.313 0-11.6-4.312-12.641-6.394-1.041-2.082 2.825-10.857-2.975-11.154-5.8-.298-5.553 9.789-9.692 10.546z" fill="red" data-name="klingon"/>
    <path d="M-63.91-17.756c-2.382-1.334-2.154-3.5-1.975-4.667.18-1.167 1.616-1.974 1.616-3.051 0-1.077.897-5.026 2.602-6.013 1.705-.987 3.59.09 4.308.09s1.974-1.705 3.231-1.705c1.256 0 1.076.807 1.435.807s2.334-1.705 3.59-.089c1.257 1.615-.538 4.577-.449 5.833.09 1.256 2.244 1.346 2.244 4.577s-4.128 1.346-4.846 2.513c-.718 1.166-2.872 2.692-5.744 2.692-2.871 0-3.769.269-6.012-.987z" fill="yellow" data-name="ferengi"/>
    <path d="M-47.008-49.074c-1.645-.076-4.227-.297-5.414-2.447-1.186-2.151.668-4.004 1.039-4.82.37-.816 1.705-3.782 2.595-3.782.89 0 1.705.297 2.966.297 1.261 0 1.854-.89 3.188-.593 1.335.296 4.895.964 4.895 3.188 0 2.225-1.187 4.227-1.928 5.784-.742 1.557-.89 2.67-7.341 2.373z" fill="cornflowerblue" data-name="first-federation"/>
    <path d="M-119.602 108.492c2.051.378 1.22 6.347 3.173 7.323 1.953.977 10.008 1.709 14.402 3.662 4.393 1.953 6.346 7.079 8.055 9.52 1.709 2.441 14.158-1.953 15.378.488 1.221 2.441-8.787 10.984-7.567 13.425 1.221 2.441 7.323 7.323 7.323 9.52 0 2.197-2.685 11.473-5.858 11.473-3.174 0-6.347-1.709-8.788-2.441-2.441-.732-6.835-6.103-9.276-6.591-2.441-.488-14.157-1.708-20.016-4.882-5.858-3.173-2.685-7.567-4.149-8.299-1.465-.732-11.229-5.858-14.158-5.858-2.929 0-10.008-.245-15.622-.245-5.615 0-5.497.381-8.19.381-2.692 0-6.907-3.864-9.014-3.864-2.107 0-6.907 6.322-8.546 7.844-1.639 1.522-1.756 5.854-2.927 8.312-1.171 2.459-9.132-.468-10.42.352-1.287.819-.468 1.17-1.873 2.575-1.405 1.405-3.278 1.639-3.161 2.342.117.702 3.395 2.809 3.395 5.034 0 2.224-3.746 3.161-4.917 4.331-1.17 1.171-5.268 5.62-5.268 6.322 0 .703.82 2.576.82 3.981 0 1.405-1.288 5.385-3.747 5.736-2.458.351-10.302.351-11.121.82-.82.468-7.025 4.566-8.547 4.214-1.522-.351-4.448-4.097-3.161-4.917 1.288-.819 4.8-1.053 4.449-2.692-.351-1.639-1.99-6.673-1.522-7.844.468-1.171 8.546 1.171 8.898.234.351-.937 1.17-3.863.351-4.683-.82-.819-3.278-3.278-3.278-4.566 0-1.288 3.278-2.458 3.278-3.629 0-1.171-.351-8.78.819-10.419 1.171-1.639 7.844-.82 8.312-1.991.469-1.17 2.108-8.429 1.639-9.834-.468-1.405-7.492-4.331-7.96-7.024-.469-2.693-3.513-5.268-4.683-5.502-1.171-.234-3.63-2.459-6.556-1.522-2.927.936-7.961 6.556-9.834 6.556-1.874 0-4.566-4.683-2.927-5.269 1.639-.585 3.395-5.853 5.619-5.97 2.225-.117 4.683-8.195 8.078-8.546 3.395-.352 16.624-11.239 21.776-11.239 5.151 0 13.58.234 14.399-4.566.82-4.8-5.151-12.059-5.736-14.283s-3.863-8.663-5.971-8.663c-2.107 0-11.122-5.034-14.868-4.917-3.746.117-10.302 2.458-13.229 4.917-2.927 2.458-8.312 3.98-9.132 3.98-.819 0-19.551 11.824-23.765 10.654-4.215-1.171-2.576-7.376-1.171-11.707 1.405-4.332 8.078-7.961 6.322-9.366-1.756-1.405-14.634.585-15.688 2.927-1.053 2.341-3.746 11.707-6.907 14.048-3.161 2.342-14.42 8.244-10.876 10.016 3.544 1.772 4.726 6.498 2.954 6.498-1.772 0-15.948 1.476-17.277 3.544-1.329 2.067-4.135 2.51-6.054 2.215-1.92-.296-5.021-11.666-6.645-13.143-1.625-1.476-6.202-3.986-7.088-5.611-.886-1.624 2.805-6.94 1.329-9.598-1.477-2.658-7.826-6.497-9.894-6.645-2.067-.148-6.645-2.658-6.645-4.135 0-1.476 3.692-5.02 3.987-6.349.296-1.329.591-5.316.739-6.645.147-1.329 7.826-5.168 10.484-5.168 2.658 0 7.678 3.248 10.779 2.658 3.101-.591 9.972-8.454 10.78-9.598 1.772-2.511 10.189-1.625 12.699-4.578 2.51-2.953 1.329-7.088 3.101-9.894 1.772-2.805 10.779 5.021 14.028 1.92 3.249-3.101 2.215-8.269.295-10.336-1.919-2.068-6.94-5.169-8.86-7.384-1.919-2.215-2.805-7.531-5.463-9.45-2.658-1.92-12.699-4.135-12.699-9.746 0-5.611 5.463-9.451 9.893-9.451 4.43 0 9.598 5.464 13.438 7.384 3.839 1.919 10.484 3.101 12.256 5.611 1.772 2.51-1.92 4.873 1.92 6.497 3.839 1.624 14.028 13.585 14.028 18.163 0 4.577.443 18.606 12.551 20.082 12.109 1.477 24.365 2.954 25.989.591 1.624-2.363 3.101-15.653 9.155-16.686 6.055-1.034 14.471-.296 16.539 3.987 2.067 4.282-4.283 16.834-4.135 20.377.148 3.544-1.181 6.645.886 7.384 2.067.738 5.316 1.919 5.316 4.43 0 2.51-2.067 4.873-1.772 7.383.295 2.51 9.155 3.691 9.451 5.316.295 1.624-2.068 12.256-1.182 13.585.886 1.329 4.135 5.759 6.202 5.02 2.067-.738 2.51-6.644 7.974-6.644s8.712 9.45 10.189 10.779c1.476 1.329 1.329 4.135 3.691 4.578 2.363.443 4.726 0 8.86.443 4.135.443 9.451 11.37 13.733 13.585 4.282 2.215 5.008-1.253 8.411-.627z" fill="coral" data-name="tholian"/>
    <path d="M-78.04 88.448c-2.1 1.007-6.906.931-7.992-.233-1.087-1.164-2.018-2.483-2.794-1.863-.776.621-2.948 3.182-4.19 3.182-1.241 0-1.009-1.552-2.173-1.552-1.163 0-3.181.543-3.647.078-.465-.466 1.708-1.94.233-2.251-1.474-.31-4.811.466-5.897.311-1.086-.156-1.862-2.794-2.638-3.415-.776-.62-1.242-.853.077-3.724 1.319-2.871 2.794-4.811 5.82-4.811 3.026 0 8.458-2.25 9.855-3.88 1.396-1.629 1.629-2.948 3.569-2.948s1.63 2.25 2.794 2.25c1.163 0 2.327-1.242 3.879-1.242s5.587 2.328 6.208 3.259c.621.931-1.164 6.13-1.009 7.993.155 1.862 1.087 5.043.776 6.285-.31 1.241-.931 1.629-2.871 2.561z" fill="turquoise" data-name="talar"/>
    <path d="M101.804 231.89c-2.897 0-7.551-2.517-7.551-5.537s.629-8.431-.252-9.186c-.88-.755-4.781-5.412-5.914-5.789-1.133-.378-2.265-2.265-2.769-3.775-.503-1.51-1.258-3.775-.503-5.286.755-1.51 1.384-3.271 1.133-4.781-.252-1.511 1.761-3.146 2.894-3.021 1.133.126 2.643 1.51 3.901.755s3.649-2.013 5.537-.629 7.047 2.391 7.425 3.146c.377.755 5.411.755 7.047.881 1.636.126 8.053 1.51 8.557 2.517.503 1.007 2.768-.252 3.523-.503.755-.252 4.027-2.643 6.544-2.014 2.517.629 3.272 2.517 3.272 3.398 0 .881 2.013 1.258 2.894 2.139.881.881.755 2.894-.881 3.775-1.636.881-3.397-.629-4.53 1.133-1.132 1.762-3.02 2.391-4.027 4.278-1.007 1.888-4.027 3.65-4.404 4.531-.378.881-2.769 4.53-2.643 5.411.126.881 4.279 4.546 3.398 5.167-.881.621-4.908-1.895-5.411-.511-.504 1.384-.755 2.391-.755 3.146 0 .755-1.259 1.384-3.272 1.384-2.014 0-5.537-1.762-7.551-1.762-2.013 0-2.265 1.133-5.662 1.133z" fill="goldenrod" data-name="gorn"/>
</svg>
