<svg xmlns="http://www.w3.org/2000/svg" viewBox="-350 -200 760 680" width="760" height="680">
    <!--<path d="M119.91,-104.167 L119.91,-104.167 L119.91,-104.167 L119.91,-104.167 C121.32,-103.886 120.699,-104.088 121.794,-103.633 C126.05,-101.63 104.521,-89.865 108.777,-86.109 C113.033,-82.354 117.038,-84.858 120.042,-84.858 C123.046,-84.858 128.303,-85.108 129.805,-83.356 C131.307,-81.603 123.797,-80.101 124.298,-77.848 C124.798,-75.595 127.051,-68.335 124.298,-67.084 C121.544,-65.832 121.043,-73.092 117.288,-72.841 C113.533,-72.591 112.031,-65.832 108.526,-65.582 C105.022,-65.331 99.514,-68.085 97.261,-63.829 C95.008,-59.574 96.761,-56.569 95.509,-54.316 C94.943,-53.423 92.874,-49.352 92.272,-43.551 C91.671,-37.75 114.887,-25.276 121.98,-24.66 C129.072,-24.045 139.167,-30.742 147.641,-31.079 C157.913,-31.079 160.517,-44.125 162.825,-39.213 C165.133,-34.3 164.165,-31.018 162.378,-20.009 C162.143,-18.627 162.277,-19.359 161.968,-17.815 C162.642,-19.03 163.882,-19.592 165.133,-20.009 C171.055,-21.349 175.777,-16.977 181.582,-24.028 C187.388,-31.079 183.206,-40.201 179.349,-35.64 C175.492,-31.079 173.478,-26.803 171.054,-28.941 C168.631,-31.079 167.738,-34.3 171.054,-38.319 C180.642,-49.938 173.422,-41.446 175.492,-45.018 C177.563,-48.591 177.116,-55.29 181.582,-55.737 C185.968,-56.353 182.955,-61.605 187.834,-61.989 L187.834,-61.989 L188.725,-61.887 C189.268,-61.636 189.859,-61.469 190.354,-61.132 C193.47,-59.005 196.741,-51.726 200.339,-48.144 C205.699,-43.232 206.592,-37.237 214.63,-31.079 C222.669,-24.921 226.783,-24.475 226.783,-17.776 C226.783,-11.077 227.582,-10.943 236.067,-9 C244.553,-7.057 249.637,-9.02 241.512,-0 C233.388,9.02 240.98,8.127 230.708,10.36 C220.436,12.593 217.757,15.719 213.291,15.719 C208.825,15.719 204.359,6.787 203.466,15.719 C202.572,24.651 199.893,28.224 208.378,27.331 C216.864,26.437 221.964,23.311 226.783,26.884 C231.601,30.457 237.132,34.923 241.512,33.583 C245.892,32.243 250.273,27.331 245.892,25.098 C241.512,22.865 237.579,20.632 241.512,17.952 C245.446,15.272 247.232,28.67 251.698,21.078 C256.164,13.486 244.106,14.467 250.805,7.234 C257.504,-0 265.096,3.661 264.203,12.593 C263.31,21.525 265.543,18.845 269.116,17.952 C272.688,17.059 276.708,17.952 277.154,21.078 C277.601,24.204 280.727,21.971 284.746,19.292 C288.766,16.612 291.446,19.292 292.339,20.185 C293.232,21.078 295.465,33.583 299.931,30.01 C304.397,26.437 311.989,24.204 314.222,25.991 C316.455,27.777 320.028,27.331 325.387,27.331 C330.746,27.331 336.105,25.991 334.319,30.01 C332.533,34.03 320.028,41.622 318.241,43.408 C316.455,45.195 309.309,40.918 307.523,44.748 C305.737,48.578 295.912,54.573 295.465,59.486 C295.018,64.398 291.892,73.777 293.678,76.01 C295.465,78.243 300.378,81.816 299.038,87.175 C299.915,92.465 298.728,91.345 301.055,93.872 C318.274,114.835 85.362,144.88 83.193,168.739 C83.003,172.179 82.018,175.449 80.966,178.7 C83.265,178.931 82.255,178.832 83.996,178.999 C86.747,179.25 87.748,184.757 90.001,186.259 C92.254,187.761 94.758,199.277 92.505,204.534 C90.252,209.791 84.744,222.308 87.498,230.569 L88.171,232.882 L88.171,232.882 L88.171,232.882 C89.069,235.63 89.335,238.925 90.286,241.599 C91.237,244.273 92.872,246.326 96.51,246.591 C100.015,246.591 101.141,244.776 102.424,243.993 C103.707,243.211 105.147,243.461 109.277,247.592 C113.408,251.723 117.163,254.852 120.198,257.856 C123.234,260.86 125.549,263.739 126.801,267.369 C128.053,270.999 130.243,274.503 132.809,277.101 C135.375,279.698 138.317,281.388 141.07,281.388 C143.824,281.388 145.013,280.574 146.14,279.823 C147.266,279.072 148.33,278.384 150.834,278.634 C153.337,278.884 155.152,281.951 156.372,285.925 C157.593,289.899 158.219,294.781 158.344,298.661 C158.469,302.541 159.533,306.609 161.191,310.646 C162.85,314.683 165.103,318.688 167.606,322.443 C170.11,326.198 170.972,329.515 171.208,332.707 C171.444,335.899 171.055,338.966 171.055,342.22 C171.055,345.475 172.383,348.04 173.586,350.294 C174.789,352.547 175.868,354.487 175.367,356.489 C174.866,358.492 171.8,360.808 168.076,362.498 C164.352,364.187 159.971,365.251 156.842,364.751 C153.713,364.25 151.281,360.808 148.44,357.772 C145.599,354.737 142.349,352.108 137.584,353.235 C132.818,354.362 130.06,356.489 129.056,359.493 C128.053,362.498 128.804,366.378 131.057,371.009 C133.31,375.64 136.69,381.21 139.568,386.812 C142.447,392.413 144.826,398.046 145.076,402.802 C145.326,407.559 147.447,412.065 150.228,416.258 C153.009,420.451 156.451,424.331 159.345,427.836 C162.239,431.341 164.179,433.093 165.396,435.158 C166.613,437.224 167.106,439.602 167.106,444.358 C167.106,449.115 168.093,452.119 169.08,454.528 C170.067,456.938 171.055,458.753 171.055,461.131 C171.055,463.509 170.211,465.315 169.368,466.527 C168.525,467.738 167.682,468.355 167.682,468.355 C164.847,469.009 161.686,469.554 159.232,468.736 C156.779,467.919 155.035,465.738 155.035,460.941 C155.035,456.144 154.926,450.911 154.217,446.877 C153.509,442.843 152.2,440.008 149.802,440.008 C147.403,440.008 148.82,439.79 149.475,439.681 C150.129,439.572 150.02,439.572 144.568,440.008 C139.117,440.444 134.647,441.752 131.594,442.189 C128.542,442.625 126.906,442.189 127.124,439.136 C127.342,436.083 129.957,435.865 132.518,435.156 C135.078,434.448 137.584,433.248 137.584,428.233 C137.584,423.218 134.751,417.767 131.591,412.424 C128.431,407.082 124.944,401.849 123.635,397.27 C122.327,392.691 120.147,390.292 118.293,387.785 C116.44,385.277 114.913,382.66 114.913,377.645 C114.913,372.63 113.06,368.378 110.607,365.162 C108.154,361.945 105.101,359.765 102.703,358.893 C100.304,358.021 98.669,359.22 97.306,360.964 C95.943,362.709 94.853,364.998 93.544,366.307 C92.236,367.615 90.363,368.16 88.223,368.487 C86.082,368.814 83.674,368.923 81.295,369.359 C78.916,369.795 74.128,371.54 69.227,372.521 C64.325,373.502 59.31,373.72 56.476,371.104 C53.641,368.487 53.423,366.198 54.622,364.617 C55.821,363.036 58.438,362.164 61.273,362.382 C64.107,362.6 69.113,362.927 73.41,362.654 C77.707,362.382 81.295,361.509 81.295,359.329 C81.295,357.148 79.87,355.949 78.127,354.532 C76.383,353.114 74.321,351.479 73.048,348.426 C71.774,345.374 71.435,343.715 72.184,341.795 C72.933,339.875 74.769,337.695 77.845,333.599 C80.92,329.503 80.702,327.541 79.17,326.057 C77.638,324.573 74.792,323.568 72.611,321.388 C70.431,319.207 66.506,315.719 63.017,312.339 C59.528,308.959 56.476,305.688 56.039,303.944 C55.603,302.199 57.222,302.308 59.448,303.072 C61.674,303.835 64.509,305.252 66.506,306.124 C68.503,306.996 71.525,309.831 74.385,312.393 C77.246,314.955 79.945,317.245 81.295,317.027 C82.645,316.809 83.527,314.519 84.344,312.175 C85.161,309.831 85.913,307.433 87.003,306.996 C88.093,306.56 87.341,305.906 86.317,304.489 C85.293,303.072 83.996,300.891 83.996,297.402 C83.996,293.913 83.984,291.733 83.373,290.043 C82.762,288.353 81.552,287.154 79.153,285.627 C76.754,284.101 74.247,281.375 71.957,278.977 C69.668,276.578 67.596,274.507 66.07,274.289 C64.544,274.071 63.017,274.367 61.491,273.963 C59.964,273.559 58.438,272.453 56.912,269.431 C55.385,266.408 55.183,263.683 55.211,261.696 C55.239,259.709 55.498,258.461 54.894,258.394 C54.29,258.327 52.748,258.762 51.339,259.601 C49.931,260.439 48.657,261.68 48.59,263.222 C48.523,264.765 48.087,266.945 47.919,269.108 C47.751,271.271 47.852,273.417 48.858,274.892 C49.864,276.368 50.333,278.078 50.3,279.419 C50.266,280.761 49.73,281.733 48.724,281.733 C47.718,281.733 46.209,281.633 44.783,281.046 C43.358,280.459 42.017,279.386 41.346,277.441 C40.676,275.496 39.82,274.423 38.877,273.853 C37.933,273.283 36.902,273.216 35.879,273.283 C34.857,273.35 33.642,273.374 32.699,273.134 C31.755,272.895 31.085,272.392 31.152,271.405 C31.219,270.418 32.963,268.942 34.757,267.445 C36.551,265.948 38.395,264.43 38.663,263.357 C38.932,262.284 37.331,260.257 35.064,258.38 C32.796,256.502 29.862,254.772 27.464,254.293 C26.295,254.198 25.125,254.33 23.963,254.548 L22.23,254.92 L20.519,255.314 C15.902,256.421 11.301,256.88 6.598,256.211 C0,255.012 -3.476,225.512 -9.472,225.752 C-18.426,226.11 -13.673,231.387 -12.829,237.984 C-11.73,246.587 -7.056,256.705 -9.472,261.728 C-12.276,267.559 -19.305,271.801 -19.545,274.439 C-19.785,277.077 -12.35,286.671 -13.309,289.789 C-14.268,292.907 -20.264,294.106 -22.183,294.106 C-24.102,294.106 -29.138,289.789 -30.338,283.073 C-31.537,276.358 -32.736,273.513 -36.333,269.431 C-39.931,265.348 -39.451,263.646 -39.451,258.85 C-39.451,254.053 -50.004,261.008 -55.281,261.728 C-60.557,262.447 -64.874,268.203 -66.313,271.081 C-67.752,273.959 -71.375,274.919 -75.2,274.919 C-79.025,274.919 -84.781,275.638 -83.822,277.557 C-82.862,279.476 -82.622,283.313 -85.021,285.951 C-87.419,288.589 -92.456,291.228 -92.456,294.825 C-92.456,298.423 -85.261,311.614 -85.74,314.972 C-86.22,318.329 -84.781,332.24 -86.7,336.557 C-88.618,340.874 -94.854,346.63 -100.37,344.232 C-105.887,341.834 -109.005,333.439 -101.09,327.443 C-93.175,321.447 -88.378,318.569 -91.017,311.614 C-93.655,304.659 -99.891,304.179 -102.769,298.903 C-105.647,293.626 -108.765,288.35 -102.769,286.431 C-96.773,284.512 -91.976,284.512 -92.216,280.915 C-92.456,277.317 -97.492,276.118 -93.655,271.801 C-89.818,267.484 -87.419,270.887 -87.899,265.348 C-88.378,259.809 -96.053,252.614 -89.098,254.772 C-82.143,256.931 -75.667,259.329 -68.232,258.37 C-60.797,257.41 -44.488,250.455 -41.85,250.935 C-39.212,251.415 -30.817,265.348 -26.02,265.348 C-21.224,265.348 -18.106,263.646 -20.744,260.049 C-23.382,256.451 -33.455,253.333 -32.016,247.817 C-30.577,242.301 -31.537,237.264 -31.057,234.146 C-30.577,231.028 -26.02,231.447 -23.382,228 C-20.744,224.553 -17.386,228.15 -15.947,221.914 C-14.508,215.679 -15.569,212.939 -19.065,209.443 C-23.622,204.886 -35.614,199.849 -43.529,202.727 C-51.443,205.605 -67.752,219.276 -77.346,216.638 C-86.939,214 -84.301,207.182 -97.253,199.678 C-110.204,192.174 -121.716,183.54 -121.476,195.532 C-121.236,207.524 -120.997,219.996 -122.675,225.032 C-124.354,230.069 -137.458,238.703 -125.87,246.378 C-114.281,254.053 -112.602,253.573 -115.96,262.447 C-119.318,271.321 -127.952,273.24 -131.789,273.959 C-135.627,274.679 -138.025,272.76 -138.025,276.358 C-138.025,279.955 -131.07,282.902 -129.391,285.232 C-127.712,287.562 -125.511,285.472 -118.217,289.069 C-110.923,292.667 -113.082,302.02 -116.2,305.618 C-119.318,309.216 -123.308,312.573 -125.87,314.972 C-128.432,317.37 -124.114,318.926 -124.114,322.167 C-124.114,325.407 -126.513,328.643 -129.631,328.643 C-132.749,328.643 -135.147,324.565 -135.147,322.407 C-135.147,320.248 -133.708,318.409 -133.708,315.691 C-133.708,312.973 -134.667,299.142 -137.785,296.984 C-140.903,294.825 -147.139,297.943 -147.858,294.585 C-148.578,291.228 -141.143,283.553 -144.501,280.195 C-147.858,276.837 -156.253,273 -158.651,275.638 C-161.05,278.276 -171.842,279.715 -173.281,279.715 C-174.72,279.715 -175.68,276.837 -177.359,276.837 C-179.037,276.837 -184.554,278.516 -188.391,278.516 C-192.229,278.516 -192.468,275.878 -193.428,275.878 C-194.387,275.878 -197.025,277.077 -198.704,277.077 C-200.383,277.077 -200.863,274.919 -204.46,274.919 C-208.058,274.919 -217.651,282.114 -223.647,278.276 C-229.643,274.439 -234.44,271.138 -234.44,269.431 C-234.44,267.724 -231.562,266.81 -231.802,265.348 C-232.042,263.886 -234.68,264.366 -238.038,261.008 C-241.395,257.65 -239.477,255.732 -238.997,253.573 C-238.517,251.415 -240.289,249.496 -243.12,249.016 C-245.952,248.536 -248.111,243.26 -250.989,243.26 C-253.867,243.26 -253.148,245.658 -250.749,248.536 C-248.351,251.415 -246.192,255.012 -247.391,256.931 C-248.591,258.85 -248.351,260.289 -252.188,260.049 C-256.026,259.809 -254.826,257.89 -256.985,258.13 C-259.144,258.37 -258.904,260.768 -260.822,260.289 C-262.741,259.809 -264.66,252.374 -269.217,252.374 C-273.774,252.374 -275.932,255.492 -279.53,255.492 C-283.127,255.492 -288.644,256.211 -290.323,260.289 C-292.001,264.366 -293.92,269.431 -295.119,269.431 C-296.319,269.431 -299.197,273.719 -296.319,275.398 C-293.44,277.077 -286.245,275.638 -286.245,278.516 C-286.245,281.394 -289.603,286.054 -291.762,287.562 C-293.92,289.069 -297.278,285.472 -299.436,285.472 C-301.595,285.472 -307.831,286.431 -310.229,284.992 C-312.628,283.553 -314.067,279.476 -312.388,273 C-310.709,266.524 -301.595,262.927 -300.875,260.049 C-300.156,257.171 -301.355,252.374 -302.314,248.776 C-303.274,245.179 -301.835,236.608 -299.436,232.019 C-297.038,227.431 -296.079,221.675 -292.721,221.675 C-289.363,221.675 -285.286,230.309 -282.888,228.87 C-280.489,227.431 -282.408,224.792 -282.888,223.114 C-283.367,221.435 -284.566,216.398 -282.648,214.959 C-280.729,213.52 -285.046,204.886 -286.725,202.967 C-288.404,201.048 -289.843,196.491 -287.684,195.772 C-285.526,195.052 -280.489,201.528 -275.932,201.768 C-271.375,202.008 -263.7,203.447 -262.741,205.605 C-261.782,207.764 -264.9,215.918 -261.782,216.158 C-258.664,216.398 -258.184,206.805 -257.465,203.926 C-256.745,201.048 -255.786,196.731 -257.705,192.174 C-259.623,187.617 -260.442,183.3 -263.221,183.54 C-266,183.78 -263.221,189.056 -270.176,189.056 C-277.131,189.056 -279.05,181.142 -281.449,179.943 C-283.847,178.743 -291.282,169.39 -291.282,161.715 C-291.282,154.04 -287.444,158.597 -284.327,159.316 C-281.209,160.036 -277.131,161.235 -275.932,164.353 C-274.733,167.471 -275.213,170.589 -271.375,171.069 C-267.538,171.548 -261.062,168.91 -257.944,169.15 C-254.826,169.39 -255.546,178.983 -252.188,178.504 C-248.83,178.024 -243.554,176.825 -240.676,179.223 C-237.798,181.621 -238.757,187.857 -236.359,188.817 C-233.96,189.776 -229.404,194.573 -230.363,196.012 C-231.322,197.451 -244.126,193.784 -243.12,196.731 C-242.115,199.678 -241.248,204.646 -243.12,206.325 C-244.993,208.004 -243.314,209.443 -240.196,210.642 C-237.078,211.841 -239.237,215.918 -239.237,219.276 C-239.237,222.634 -234.2,226.471 -234.68,229.829 C-235.16,233.187 -236.839,239.423 -232.042,239.902 C-227.245,240.382 -226.525,238.463 -222.928,238.703 C-219.33,238.943 -215.493,249.736 -215.493,252.614 C-215.493,255.492 -210.696,259.329 -207.099,259.329 C-203.501,259.329 -191.029,254.053 -186.233,254.053 C-181.436,254.053 -170.643,255.732 -167.765,255.971 C-164.887,256.211 -152.655,258.13 -147.379,258.13 C-142.102,258.13 -136.27,269.163 -131.07,263.886 C-125.87,258.61 -129.871,252.854 -131.31,250.215 C-132.749,247.577 -137.306,245.179 -137.306,239.183 C-137.306,233.187 -139.704,234.386 -143.302,234.386 C-146.899,234.386 -148.338,237.024 -150.976,237.504 C-153.615,237.984 -153.375,235.345 -155.054,233.187 C-156.732,231.028 -157.212,232.019 -162.728,232.019 C-168.245,232.019 -168.964,229.11 -169.684,225.272 C-170.403,221.435 -172.322,220.475 -174.481,218.796 C-176.639,217.118 -173.761,214.479 -171.123,212.8 C-168.485,211.122 -160.33,208.963 -160.33,202.967 C-160.33,196.971 -160.09,196.252 -165.367,195.532 C-170.643,194.813 -177.838,193.134 -179.037,195.532 C-180.237,197.931 -187.192,201.528 -189.83,201.288 C-192.468,201.048 -197.505,198.41 -202.542,198.41 C-207.578,198.41 -209.257,200.809 -214.294,200.809 C-219.33,200.809 -222.448,196.012 -222.928,196.012 C-223.408,196.012 -222.688,188.577 -218.131,187.857 C-213.574,187.138 -208.777,188.097 -204.7,188.097 C-200.623,188.097 -196.066,181.861 -195.346,180.662 C-194.627,179.463 -194.867,171.548 -187.672,171.548 C-180.477,171.548 -176.799,175.088 -172.539,178.451 C-168.278,181.814 -155.946,174.639 -155.722,172.173 C-155.497,169.706 -153.479,160.289 -156.394,159.84 C-159.309,159.392 -168.503,156.477 -168.503,154.01 C-168.503,151.544 -163.794,148.18 -159.758,149.302 C-155.722,150.423 -157.291,155.563 -154.825,155.563 C-152.358,155.563 -148.098,150.871 -143.389,151.544 C-138.68,152.217 -132.178,165.222 -127.469,165.894 C-122.76,166.567 -113.032,163.398 -110.204,161.634 C-97.922,153.974 -88.463,167.094 -83.73,158.029 C-78.998,148.964 -81.854,148.014 -87.785,144.851 C-93.716,141.688 -82.369,135.765 -79.996,131.811 C-77.624,127.858 -85.136,128.648 -89.485,128.648 C-93.835,128.648 -96.218,127.68 -100.963,126.098 C-105.707,124.517 -103.719,117.183 -108.068,116.392 C-112.417,115.601 -114.18,123.93 -119.715,119.003 C-125.251,114.075 -120.325,105.717 -114.79,102.158 C-109.254,98.6 -108.457,97.635 -106.024,97.688 C-98.577,97.85 -95.657,108.416 -88.54,96.554 C-87.387,94.633 -81.461,97.558 -81.741,96.069 C-83.683,85.708 -80.067,90.442 -77.46,84.478 C-76.471,82.215 -78.616,76.56 -77.332,72.685 C-77.046,71.824 -74.127,70.762 -72.189,68.709 C-70.329,66.739 -66.177,74.209 -65.228,70.004 C-64.095,64.986 -58.768,65.529 -58.752,58.51 C-58.053,53.925 -53.24,51.381 -49.629,49.193 L-49.629,49.193 C-44.647,46.156 -39.511,43.387 -34.828,39.89 C-32.604,38.135 -29.907,40.828 -27.328,36.766 C-24.481,32.278 -27.243,28.457 -32.364,28.236 C-37.485,28.016 -37.596,28.838 -38.11,27.625 C-39.125,25.228 -34.601,22.717 -39.973,20.142 C-47.016,16.766 -36.986,12.776 -37.25,11.453 C-37.953,7.938 -37.953,6.063 -34.438,0.516 C-33.953,-0.249 -36.052,-1.19 -35.844,-5.812 C-35.531,-12.765 -33.052,-16.728 -35.688,-17.687 C-37.403,-18.311 -36.018,-23.544 -38.578,-27.062 C-39.51,-28.342 -42.418,-28.29 -44.359,-29.015 C-45.916,-29.596 -46.603,-30.923 -47.016,-31.984 C-48.264,-35.188 -41.76,-36.194 -44.203,-39.562 C-49.984,-47.53 -55.219,-37.765 -61.234,-42.53 C-63.566,-44.378 -62.64,-47.608 -65.922,-49.718 C-70.782,-52.842 -77.797,-49.483 -77.172,-56.514 C-76.821,-60.453 -75.893,-62.8 -78.265,-66.358 C-80.638,-69.916 -84.17,-73.048 -79.437,-75.42 C-78.107,-76.087 -76.151,-75.201 -74.359,-76.045 C-72.305,-77.013 -70.531,-81.827 -68.344,-82.764 C-65.649,-83.918 -62.884,-82.84 -60.844,-83.467 C-59.828,-83.78 -55.922,-86.905 -51.234,-86.983 L-51.234,-86.983 C-49.57,-87.011 -52.303,-81.137 -50.922,-81.28 C-43.344,-82.061 -47.449,-78.22 -45.609,-77.374 C-43.249,-76.287 -41.625,-80.577 -38.344,-76.983 C-37.121,-75.643 -32.354,-76.086 -31.938,-73.702 C-31.481,-71.088 -36.469,-67.608 -33.813,-64.874 C-33.14,-64.181 -30.202,-64.464 -28.969,-63.468 C-27.321,-62.136 -28.578,-59.952 -26.235,-59.093 C-23.647,-58.144 -23.188,-65.265 -23.188,-67.842 C-23.188,-71.796 -16.341,-70.621 -14.759,-73.389 C-13.178,-76.156 -22.271,-82.482 -16.736,-82.878 C-11.201,-83.273 -8.716,-83.027 -6.403,-82.718 C-4.09,-82.408 -2.696,-75.283 0.866,-75.283 C4.428,-75.283 8.3,-78.071 10.314,-76.522 C12.327,-74.973 16.044,-73.115 20.071,-73.425 C24.098,-73.734 27.971,-75.283 27.816,-78.691 C27.661,-82.098 25.492,-83.802 30.294,-83.802 C35.095,-83.802 38.812,-77.297 41.6,-77.297 C44.388,-77.297 55.54,-78.846 60.341,-79 C65.746,-79.656 71.86,-91.442 74.075,-86.718 L74.075,-86.718 L74.126,-86.744 C77.843,-88.293 79.392,-86.59 83.264,-88.139 C87.136,-89.687 87.601,-94.489 91.782,-94.489 C95.964,-94.489 99.264,-91.116 101.267,-93.369 C103.269,-95.622 104.02,-100.879 111.53,-101.13 C113.462,-101.165 115.269,-101.589 116.956,-102.56 C117.514,-102.902 118.117,-103.195 118.589,-103.658 C118.625,-103.693 118.618,-103.763 118.661,-103.79 C118.996,-104.003 119.529,-104.053 119.91,-104.167 z M46.796,420.605 L46.796,420.605 L46.796,420.605 C46.324,420.788 46.022,420.906 45.819,421.114 C45.616,421.322 45.512,421.619 45.435,422.163 C45.273,423.785 46.246,424.677 47.179,425.731 C48.111,426.785 49.003,428.002 48.679,430.272 C48.354,432.543 47.868,433.597 47.787,434.448 C47.706,435.3 48.03,435.949 49.328,437.408 C50.625,438.868 51.758,437.415 52.852,435.675 C53.946,433.935 55,431.908 56.139,432.218 C57.923,432.705 58.734,432.867 59.099,432.502 C59.464,432.137 59.383,431.245 59.383,429.623 C59.383,428.002 58.572,426.461 57.396,425.204 C56.22,423.947 54.68,422.974 53.22,422.487 C52.178,422.104 51.138,421.631 50.076,421.256 C49.014,420.88 47.929,420.601 46.796,420.605 z M49.59,386.653 L49.59,386.653 C48.375,386.749 46.875,386.84 45.626,387.286 C44.377,387.733 43.378,388.534 43.164,390.05 C43.165,391.348 44.622,393.224 46.365,394.973 C48.107,396.722 50.134,398.344 51.274,399.133 C53.382,400.592 55.411,401.403 56.914,401.525 C58.416,401.647 59.391,401.079 59.39,399.781 C59.391,398.484 59.064,397.592 58.535,396.66 C58.006,395.727 57.275,394.754 56.464,393.294 C55.653,391.835 55.166,390.375 54.436,389.199 C53.706,388.023 52.733,387.131 50.949,386.807 L50.27,386.73 L49.59,386.653 z M76.216,388.536 C75.19,388.711 74.888,388.744 74.674,388.784 C74.459,388.824 74.332,388.871 73.655,389.077 C72.682,389.402 72.374,390.699 72.909,392.119 C73.444,393.538 74.823,395.078 77.223,395.889 C80.585,397.024 82.278,396.457 82.793,395.24 C83.308,394.024 82.645,392.159 81.295,390.699 C80.659,390.172 80.018,389.656 79.319,389.261 C78.62,388.867 77.864,388.593 76.999,388.548 L76.607,388.542 L76.215,388.536 z M-283.466,282.197 L-283.891,282.226 C-285.876,282.475 -288.358,283.84 -286.125,285.701 C-283.891,287.562 -281.161,288.431 -281.161,288.927 C-281.161,285.616 -271.73,289.672 -273.467,286.445 C-275.557,283.259 -279.914,282.4 -283.466,282.197 z M-250.605,267.887 C-253.112,268.271 -254.181,269.157 -255.599,271.307 C-256.84,273.183 -257.409,279.042 -254.854,278.255 C-251.628,277.263 -243.12,277.263 -241.701,275.277 C-240.282,273.292 -241.205,273.044 -246.416,269.431 C-247.708,268.62 -249.028,267.892 -250.605,267.887 z M-301.822,146.992 L-301.823,146.993 C-304.642,148.053 -306.596,150.391 -308.957,152.182 C-312.928,155.16 -311.687,161.365 -309.949,162.605 C-308.212,163.846 -303.993,162.854 -299.278,161.613 C-299.278,161.613 -294.314,160.62 -294.314,157.394 C-294.314,154.168 -296.796,151.686 -299.278,148.211 C-299.978,147.383 -300.658,146.828 -301.822,146.992 z M145.954,-95.196 C145.794,-95.16 145.593,-95.2 145.474,-95.087 C145.18,-94.807 145.386,-93.644 145.372,-93.329 C145.267,-90.957 145.412,-91.601 144.604,-89.936 C142.492,-86.92 140.08,-88.729 140.08,-86.317 C140.08,-83.904 143.699,-82.094 145.81,-82.396 C147.921,-82.698 155.762,-85.11 159.08,-85.11 C162.397,-85.11 162.397,-80.777 162.397,-75.158 C162.397,-69.539 159.683,-71.583 159.683,-69.126 C159.683,-66.67 160.889,-61.989 162.699,-61.989 C167.524,-61.989 168.73,-64.301 169.032,-67.92 C169.334,-71.539 171.055,-73.348 175.492,-73.047 C179.93,-72.745 183.206,-71.583 187.73,-70.031 C192.254,-68.479 195.953,-71.583 195.953,-74.856 C195.953,-78.13 192.254,-77.571 186.825,-77.571 C181.397,-77.571 180.794,-80.777 178.984,-83.602 C177.175,-86.428 173.556,-85.412 171.055,-86.618 C168.553,-87.825 168.73,-94.158 165.133,-94.158 C161.536,-94.158 160.286,-92.047 156.365,-91.745 C152.445,-91.444 151.842,-92.047 147.619,-94.459 C146.612,-95.001 147.163,-94.746 145.954,-95.196 L145.954,-95.196 L145.954,-95.196 z M135.524,-80.713 L134.916,-80.7 C132.587,-79.849 133.557,-80.339 131.937,-79.38 C129.223,-77.571 127.879,-70.113 131.334,-71.84 C136.762,-74.555 137.584,-76.063 137.584,-78.777 C137.394,-80.192 137,-80.644 135.524,-80.713 z" fill="blue" data-name="federation"/>-->
    <path d="M119.91,-104.167 C121.32,-103.886 120.699,-104.088 121.794,-103.633 C126.05,-101.63 104.521,-89.865 108.777,-86.109 C113.033,-82.354 117.038,-84.858 120.042,-84.858 C123.046,-84.858 128.303,-85.108 129.805,-83.356 C131.307,-81.603 123.797,-80.101 124.298,-77.848 C124.798,-75.595 127.051,-68.335 124.298,-67.084 C121.544,-65.832 121.043,-73.092 117.288,-72.841 C113.533,-72.591 112.031,-65.832 108.526,-65.582 C105.022,-65.331 99.514,-68.085 97.261,-63.829 C95.008,-59.574 97.054,-58.922 95.802,-56.669 C94.369,-54.311 99.289,-49.146 93.613,-48.258 C87.937,-47.37 86.432,-49.93 82.852,-50.092 C75.327,-50.092 69.387,-46.924 59.486,-50.092 C49.586,-53.26 43.628,-46.018 33.48,-48.886 C25.396,-51.17 27.535,-44.73 27.139,-39.978 C26.743,-35.226 22.777,-15.33 49.588,3.504 C92.722,33.805 81.671,10.277 92.366,14.911 C98.133,17.41 97.339,23.265 99.852,26.675 C104.843,33.449 123.38,33.092 126.811,16.837 C128.134,10.566 125.735,3.897 124.296,-2.193 C123.199,-6.836 122.897,-9.291 122.025,-13.955 C121.61,-16.178 119.362,-21.495 121.538,-24.351 C124.137,-27.762 139.054,-29.374 147.528,-29.711 C157.8,-29.711 160.517,-44.125 162.825,-39.213 C165.133,-34.3 161.093,-23.091 162.378,-20.009 C163.663,-16.926 163.882,-19.592 165.133,-20.009 C171.055,-21.349 175.777,-16.977 181.582,-24.028 C187.388,-31.079 183.206,-40.201 179.349,-35.64 C175.492,-31.079 173.478,-26.803 171.054,-28.941 C168.631,-31.079 167.483,-34.338 171.102,-38.087 C174.273,-41.371 173.422,-41.446 175.492,-45.018 C177.563,-48.591 177.116,-55.29 181.582,-55.737 C185.968,-56.353 182.955,-61.605 187.834,-61.989 L188.725,-61.887 C189.268,-61.636 189.859,-61.469 190.354,-61.132 C193.47,-59.005 196.741,-51.726 200.339,-48.144 C205.699,-43.232 206.592,-37.237 214.63,-31.079 C222.669,-24.921 226.783,-24.475 226.783,-17.776 C226.783,-11.077 227.582,-10.943 236.067,-9 C244.553,-7.057 249.637,-9.02 241.512,0 C233.388,9.02 240.98,8.127 230.708,10.36 C220.436,12.593 217.757,15.719 213.291,15.719 C208.825,15.719 204.359,6.787 203.466,15.719 C202.572,24.651 199.893,28.224 208.378,27.331 C216.864,26.437 221.964,23.311 226.783,26.884 C231.601,30.457 237.132,34.923 241.512,33.583 C245.892,32.243 250.273,27.331 245.892,25.098 C241.512,22.865 237.579,20.632 241.512,17.952 C245.446,15.272 247.232,28.67 251.698,21.078 C256.164,13.486 244.106,14.467 250.805,7.234 C257.504,0 265.096,3.661 264.203,12.593 C263.31,21.525 265.543,18.845 269.116,17.952 C272.688,17.059 276.708,17.952 277.154,21.078 C277.601,24.204 280.727,21.971 284.746,19.292 C288.766,16.612 291.446,19.292 292.339,20.185 C293.232,21.078 295.465,33.583 299.931,30.01 C304.397,26.437 311.989,24.204 314.222,25.991 C316.455,27.777 320.028,27.331 325.387,27.331 C330.746,27.331 336.105,25.991 334.319,30.01 C332.533,34.03 320.028,41.622 318.241,43.408 C316.455,45.195 309.309,40.918 307.523,44.748 C305.737,48.578 295.912,54.573 295.465,59.486 C295.018,64.398 291.892,73.777 293.678,76.01 C295.465,78.243 300.378,81.816 299.038,87.175 C299.915,92.465 298.728,91.345 301.055,93.872 C318.274,114.835 85.362,144.88 83.193,168.739 C83.003,172.179 82.018,175.449 80.966,178.7 C83.265,178.931 82.255,178.832 83.996,178.999 C86.747,179.25 87.748,184.757 90.001,186.259 C92.254,187.761 94.758,199.277 92.505,204.534 C90.252,209.791 84.744,222.308 87.498,230.569 L88.171,232.882 C89.069,235.63 89.335,238.925 90.286,241.599 C91.237,244.273 92.872,246.326 96.51,246.591 C100.015,246.591 101.141,244.776 102.424,243.993 C103.707,243.211 105.147,243.461 109.277,247.592 C113.408,251.723 117.163,254.852 120.198,257.856 C123.234,260.86 125.549,263.739 126.801,267.369 C128.053,270.999 130.243,274.503 132.809,277.101 C135.375,279.698 138.317,281.388 141.07,281.388 C143.824,281.388 145.013,280.574 146.14,279.823 C147.266,279.072 148.33,278.384 150.834,278.634 C153.337,278.884 155.152,281.951 156.372,285.925 C157.593,289.899 158.219,294.781 158.344,298.661 C158.469,302.541 159.533,306.609 161.191,310.646 C162.85,314.683 165.103,318.688 167.606,322.443 C170.11,326.198 170.972,329.515 171.208,332.707 C171.444,335.899 171.055,338.966 171.055,342.22 C171.055,345.475 172.383,348.04 173.586,350.294 C174.789,352.547 175.868,354.487 175.367,356.489 C174.866,358.492 171.8,360.808 168.076,362.498 C164.352,364.187 159.971,365.251 156.842,364.751 C153.713,364.25 151.281,360.808 148.44,357.772 C145.599,354.737 142.349,352.108 137.584,353.235 C132.818,354.362 130.06,356.489 129.056,359.493 C128.053,362.498 128.804,366.378 131.057,371.009 C133.31,375.64 136.69,381.21 139.568,386.812 C142.447,392.413 144.826,398.046 145.076,402.802 C145.326,407.559 147.447,412.065 150.228,416.258 C153.009,420.451 156.451,424.331 159.345,427.836 C162.239,431.341 164.179,433.093 165.396,435.158 C166.613,437.224 167.106,439.602 167.106,444.358 C167.106,449.115 168.093,452.119 169.08,454.528 C170.067,456.938 171.055,458.753 171.055,461.131 C171.055,463.509 170.211,465.315 169.368,466.527 C168.525,467.738 167.682,468.355 167.682,468.355 C164.847,469.009 161.686,469.554 159.232,468.736 C156.779,467.919 155.035,465.738 155.035,460.941 C155.035,456.144 154.926,450.911 154.217,446.877 C153.509,442.843 152.2,440.008 149.802,440.008 C147.403,440.008 148.82,439.79 149.475,439.681 C150.129,439.572 150.02,439.572 144.568,440.008 C139.117,440.444 134.647,441.752 131.594,442.189 C128.542,442.625 126.906,442.189 127.124,439.136 C127.342,436.083 129.957,435.865 132.518,435.156 C135.078,434.448 137.584,433.248 137.584,428.233 C137.584,423.218 134.751,417.767 131.591,412.424 C128.431,407.082 124.944,401.849 123.635,397.27 C122.327,392.691 120.147,390.292 118.293,387.785 C116.44,385.277 114.913,382.66 114.913,377.645 C114.913,372.63 113.06,368.378 110.607,365.162 C108.154,361.945 105.101,359.765 102.703,358.893 C100.304,358.021 98.669,359.22 97.306,360.964 C95.943,362.709 94.853,364.998 93.544,366.307 C92.236,367.615 90.363,368.16 88.223,368.487 C86.082,368.814 83.674,368.923 81.295,369.359 C78.916,369.795 74.128,371.54 69.227,372.521 C64.325,373.502 59.31,373.72 56.476,371.104 C53.641,368.487 53.423,366.198 54.622,364.617 C55.821,363.036 58.438,362.164 61.273,362.382 C64.107,362.6 69.113,362.927 73.41,362.654 C77.707,362.382 81.295,361.509 81.295,359.329 C81.295,357.148 79.87,355.949 78.127,354.532 C76.383,353.114 74.321,351.479 73.048,348.426 C71.774,345.374 71.435,343.715 72.184,341.795 C72.933,339.875 74.769,337.695 77.845,333.599 C80.92,329.503 80.702,327.541 79.17,326.057 C77.638,324.573 74.792,323.568 72.611,321.388 C70.431,319.207 66.506,315.719 63.017,312.339 C59.528,308.959 56.476,305.688 56.039,303.944 C55.603,302.199 57.222,302.308 59.448,303.072 C61.674,303.835 64.509,305.252 66.506,306.124 C68.503,306.996 71.525,309.831 74.385,312.393 C77.246,314.955 79.945,317.245 81.295,317.027 C82.645,316.809 83.527,314.519 84.344,312.175 C85.161,309.831 85.913,307.433 87.003,306.996 C88.093,306.56 87.341,305.906 86.317,304.489 C85.293,303.072 83.996,300.891 83.996,297.402 C83.996,293.913 83.984,291.733 83.373,290.043 C82.762,288.353 81.552,287.154 79.153,285.627 C76.754,284.101 74.247,281.375 71.957,278.977 C69.668,276.578 67.596,274.507 66.07,274.289 C64.544,274.071 63.017,274.367 61.491,273.963 C59.964,273.559 58.438,272.453 56.912,269.431 C55.385,266.408 55.183,263.683 55.211,261.696 C55.239,259.709 55.498,258.461 54.894,258.394 C54.29,258.327 52.748,258.762 51.339,259.601 C49.931,260.439 48.657,261.68 48.59,263.222 C48.523,264.765 48.087,266.945 47.919,269.108 C47.751,271.271 47.852,273.417 48.858,274.892 C49.864,276.368 50.333,278.078 50.3,279.419 C50.266,280.761 49.73,281.733 48.724,281.733 C47.718,281.733 46.209,281.633 44.783,281.046 C43.358,280.459 42.017,279.386 41.346,277.441 C40.676,275.496 39.82,274.423 38.877,273.853 C37.933,273.283 36.902,273.216 35.879,273.283 C34.857,273.35 33.642,273.374 32.699,273.134 C31.755,272.895 31.085,272.392 31.152,271.405 C31.219,270.418 32.963,268.942 34.757,267.445 C36.551,265.948 38.395,264.43 38.663,263.357 C38.932,262.284 37.331,260.257 35.064,258.38 C32.796,256.502 29.862,254.772 27.464,254.293 C26.295,254.198 25.125,254.33 23.963,254.548 L22.23,254.92 L20.519,255.314 C15.902,256.421 11.301,256.88 6.598,256.211 C0,255.012 -3.476,225.512 -9.472,225.752 C-18.426,226.11 -13.673,231.387 -12.829,237.984 C-11.73,246.587 -7.056,256.705 -9.472,261.728 C-12.276,267.559 -19.305,271.801 -19.545,274.439 C-19.785,277.077 -12.35,286.671 -13.309,289.789 C-14.268,292.907 -20.264,294.106 -22.183,294.106 C-24.102,294.106 -29.138,289.789 -30.338,283.073 C-31.537,276.358 -32.736,273.513 -36.333,269.431 C-39.931,265.348 -39.451,263.646 -39.451,258.85 C-39.451,254.053 -50.004,261.008 -55.281,261.728 C-60.557,262.447 -64.874,268.203 -66.313,271.081 C-67.752,273.959 -71.375,274.919 -75.2,274.919 C-79.025,274.919 -84.781,275.638 -83.822,277.557 C-82.862,279.476 -82.622,283.313 -85.021,285.951 C-87.419,288.589 -92.456,291.228 -92.456,294.825 C-92.456,298.423 -85.261,311.614 -85.74,314.972 C-86.22,318.329 -84.781,332.24 -86.7,336.557 C-88.618,340.874 -94.854,346.63 -100.37,344.232 C-105.887,341.834 -109.005,333.439 -101.09,327.443 C-93.175,321.447 -88.378,318.569 -91.017,311.614 C-93.655,304.659 -99.891,304.179 -102.769,298.903 C-105.647,293.626 -108.765,288.35 -102.769,286.431 C-96.773,284.512 -91.976,284.512 -92.216,280.915 C-92.456,277.317 -97.492,276.118 -93.655,271.801 C-89.818,267.484 -87.419,270.887 -87.899,265.348 C-88.378,259.809 -96.053,252.614 -89.098,254.772 C-82.143,256.931 -75.667,259.329 -68.232,258.37 C-60.797,257.41 -44.488,250.455 -41.85,250.935 C-39.212,251.415 -30.817,265.348 -26.02,265.348 C-21.224,265.348 -18.106,263.646 -20.744,260.049 C-23.382,256.451 -33.455,253.333 -32.016,247.817 C-30.577,242.301 -31.537,237.264 -31.057,234.146 C-30.577,231.028 -26.02,231.447 -23.382,228 C-20.744,224.553 -17.386,228.15 -15.947,221.914 C-14.508,215.679 -15.569,212.939 -19.065,209.443 C-23.622,204.886 -35.614,199.849 -43.529,202.727 C-51.443,205.605 -67.752,219.276 -77.346,216.638 C-86.939,214 -84.301,207.182 -97.253,199.678 C-110.204,192.174 -121.716,183.54 -121.476,195.532 C-121.236,207.524 -120.997,219.996 -122.675,225.032 C-124.354,230.069 -137.458,238.703 -125.87,246.378 C-114.281,254.053 -112.602,253.573 -115.96,262.447 C-119.318,271.321 -127.952,273.24 -131.789,273.959 C-135.627,274.679 -138.025,272.76 -138.025,276.358 C-138.025,279.955 -131.07,282.902 -129.391,285.232 C-127.712,287.562 -125.511,285.472 -118.217,289.069 C-110.923,292.667 -113.082,302.02 -116.2,305.618 C-119.318,309.216 -123.308,312.573 -125.87,314.972 C-128.432,317.37 -124.114,318.926 -124.114,322.167 C-124.114,325.407 -126.513,328.643 -129.631,328.643 C-132.749,328.643 -135.147,324.565 -135.147,322.407 C-135.147,320.248 -133.708,318.409 -133.708,315.691 C-133.708,312.973 -134.667,299.142 -137.785,296.984 C-140.903,294.825 -147.139,297.943 -147.858,294.585 C-148.578,291.228 -141.143,283.553 -144.501,280.195 C-147.858,276.837 -156.253,273 -158.651,275.638 C-161.05,278.276 -171.842,279.715 -173.281,279.715 C-174.72,279.715 -175.68,276.837 -177.359,276.837 C-179.037,276.837 -184.554,278.516 -188.391,278.516 C-192.229,278.516 -192.468,275.878 -193.428,275.878 C-194.387,275.878 -197.025,277.077 -198.704,277.077 C-200.383,277.077 -200.863,274.919 -204.46,274.919 C-208.058,274.919 -217.651,282.114 -223.647,278.276 C-229.643,274.439 -234.44,271.138 -234.44,269.431 C-234.44,267.724 -231.562,266.81 -231.802,265.348 C-232.042,263.886 -234.68,264.366 -238.038,261.008 C-241.395,257.65 -239.477,255.732 -238.997,253.573 C-238.517,251.415 -240.289,249.496 -243.12,249.016 C-245.952,248.536 -248.111,243.26 -250.989,243.26 C-253.867,243.26 -253.148,245.658 -250.749,248.536 C-248.351,251.415 -246.192,255.012 -247.391,256.931 C-248.591,258.85 -248.351,260.289 -252.188,260.049 C-256.026,259.809 -254.826,257.89 -256.985,258.13 C-259.144,258.37 -258.904,260.768 -260.822,260.289 C-262.741,259.809 -264.66,252.374 -269.217,252.374 C-273.774,252.374 -275.932,255.492 -279.53,255.492 C-283.127,255.492 -288.644,256.211 -290.323,260.289 C-292.001,264.366 -293.92,269.431 -295.119,269.431 C-296.319,269.431 -299.197,273.719 -296.319,275.398 C-293.44,277.077 -286.245,275.638 -286.245,278.516 C-286.245,281.394 -289.603,286.054 -291.762,287.562 C-293.92,289.069 -297.278,285.472 -299.436,285.472 C-301.595,285.472 -307.831,286.431 -310.229,284.992 C-312.628,283.553 -314.067,279.476 -312.388,273 C-310.709,266.524 -301.595,262.927 -300.875,260.049 C-300.156,257.171 -301.355,252.374 -302.314,248.776 C-303.274,245.179 -301.835,236.608 -299.436,232.019 C-297.038,227.431 -296.079,221.675 -292.721,221.675 C-289.363,221.675 -285.286,230.309 -282.888,228.87 C-280.489,227.431 -282.408,224.792 -282.888,223.114 C-283.367,221.435 -284.566,216.398 -282.648,214.959 C-280.729,213.52 -285.046,204.886 -286.725,202.967 C-288.404,201.048 -289.843,196.491 -287.684,195.772 C-285.526,195.052 -280.489,201.528 -275.932,201.768 C-271.375,202.008 -263.7,203.447 -262.741,205.605 C-261.782,207.764 -264.9,215.918 -261.782,216.158 C-258.664,216.398 -258.184,206.805 -257.465,203.926 C-256.745,201.048 -255.786,196.731 -257.705,192.174 C-259.623,187.617 -260.442,183.3 -263.221,183.54 C-266,183.78 -263.221,189.056 -270.176,189.056 C-277.131,189.056 -279.05,181.142 -281.449,179.943 C-283.847,178.743 -291.282,169.39 -291.282,161.715 C-291.282,154.04 -287.444,158.597 -284.327,159.316 C-281.209,160.036 -277.131,161.235 -275.932,164.353 C-274.733,167.471 -275.213,170.589 -271.375,171.069 C-267.538,171.548 -261.062,168.91 -257.944,169.15 C-254.826,169.39 -255.546,178.983 -252.188,178.504 C-248.83,178.024 -243.554,176.825 -240.676,179.223 C-237.798,181.621 -238.757,187.857 -236.359,188.817 C-233.96,189.776 -229.404,194.573 -230.363,196.012 C-231.322,197.451 -244.126,193.784 -243.12,196.731 C-242.115,199.678 -241.248,204.646 -243.12,206.325 C-244.993,208.004 -243.314,209.443 -240.196,210.642 C-237.078,211.841 -239.237,215.918 -239.237,219.276 C-239.237,222.634 -234.2,226.471 -234.68,229.829 C-235.16,233.187 -236.839,239.423 -232.042,239.902 C-227.245,240.382 -226.525,238.463 -222.928,238.703 C-219.33,238.943 -215.493,249.736 -215.493,252.614 C-215.493,255.492 -210.696,259.329 -207.099,259.329 C-203.501,259.329 -191.029,254.053 -186.233,254.053 C-181.436,254.053 -170.643,255.732 -167.765,255.971 C-164.887,256.211 -152.655,258.13 -147.379,258.13 C-142.102,258.13 -136.27,269.163 -131.07,263.886 C-125.87,258.61 -129.871,252.854 -131.31,250.215 C-132.749,247.577 -137.306,245.179 -137.306,239.183 C-137.306,233.187 -139.704,234.386 -143.302,234.386 C-146.899,234.386 -148.338,237.024 -150.976,237.504 C-153.615,237.984 -153.375,235.345 -155.054,233.187 C-156.732,231.028 -157.212,232.019 -162.728,232.019 C-168.245,232.019 -168.964,229.11 -169.684,225.272 C-170.403,221.435 -172.322,220.475 -174.481,218.796 C-176.639,217.118 -173.761,214.479 -171.123,212.8 C-168.485,211.122 -160.33,208.963 -160.33,202.967 C-160.33,196.971 -160.09,196.252 -165.367,195.532 C-170.643,194.813 -177.838,193.134 -179.037,195.532 C-180.237,197.931 -187.192,201.528 -189.83,201.288 C-192.468,201.048 -197.505,198.41 -202.542,198.41 C-207.578,198.41 -209.257,200.809 -214.294,200.809 C-219.33,200.809 -222.448,196.012 -222.928,196.012 C-223.408,196.012 -222.688,188.577 -218.131,187.857 C-213.574,187.138 -208.777,188.097 -204.7,188.097 C-200.623,188.097 -196.066,181.861 -195.346,180.662 C-194.627,179.463 -194.867,171.548 -187.672,171.548 C-180.477,171.548 -176.799,175.088 -172.539,178.451 C-168.278,181.814 -155.946,174.639 -155.722,172.173 C-155.497,169.706 -153.479,160.289 -156.394,159.84 C-159.309,159.392 -168.503,156.477 -168.503,154.01 C-168.503,151.544 -163.794,148.18 -159.758,149.302 C-155.722,150.423 -157.291,155.563 -154.825,155.563 C-152.358,155.563 -148.098,150.871 -143.389,151.544 C-138.68,152.217 -132.178,165.222 -127.469,165.894 C-122.76,166.567 -113.032,163.398 -110.204,161.634 C-97.922,153.974 -88.463,167.094 -83.73,158.029 C-78.998,148.964 -81.854,148.014 -87.785,144.851 C-93.716,141.688 -82.369,135.765 -79.996,131.811 C-77.624,127.858 -85.136,128.648 -89.485,128.648 C-93.835,128.648 -96.218,127.68 -100.963,126.098 C-105.707,124.517 -103.719,117.183 -108.068,116.392 C-112.417,115.601 -114.18,123.93 -119.715,119.003 C-125.251,114.075 -120.325,105.717 -114.79,102.158 C-109.254,98.6 -108.457,97.635 -106.024,97.688 C-98.577,97.85 -95.657,108.416 -88.54,96.554 C-87.387,94.633 -81.461,97.558 -81.741,96.069 C-83.683,85.708 -80.067,90.442 -77.46,84.478 C-76.471,82.215 -78.616,76.56 -77.332,72.685 C-77.046,71.824 -74.127,70.762 -72.189,68.709 C-70.329,66.739 -66.177,74.209 -65.228,70.004 C-64.095,64.986 -58.768,65.529 -58.752,58.51 C-58.053,53.925 -53.24,51.381 -49.629,49.193 C-44.647,46.156 -39.511,43.387 -34.828,39.89 C-32.604,38.135 -29.907,40.828 -27.328,36.766 C-24.481,32.278 -27.243,28.457 -32.364,28.236 C-37.485,28.016 -37.596,28.838 -38.11,27.625 C-39.125,25.228 -34.601,22.717 -39.973,20.142 C-47.016,16.766 -36.986,12.776 -37.25,11.453 C-37.953,7.938 -37.953,6.063 -34.438,0.516 C-33.953,-0.249 -36.052,-1.19 -35.844,-5.812 C-35.531,-12.765 -33.052,-16.728 -35.688,-17.687 C-37.403,-18.311 -36.018,-23.544 -38.578,-27.062 C-39.51,-28.342 -42.418,-28.29 -44.359,-29.015 C-45.916,-29.596 -46.603,-30.923 -47.016,-31.984 C-48.264,-35.188 -41.76,-36.194 -44.203,-39.562 C-49.984,-47.53 -55.219,-37.765 -61.234,-42.53 C-63.566,-44.378 -62.64,-47.608 -65.922,-49.718 C-70.782,-52.842 -77.797,-49.483 -77.172,-56.514 C-76.821,-60.453 -75.893,-62.8 -78.265,-66.358 C-80.638,-69.916 -84.17,-73.048 -79.437,-75.42 C-78.107,-76.087 -76.151,-75.201 -74.359,-76.045 C-72.305,-77.013 -70.531,-81.827 -68.344,-82.764 C-65.649,-83.918 -62.884,-82.84 -60.844,-83.467 C-59.828,-83.78 -55.922,-86.905 -51.234,-86.983 C-49.57,-87.011 -52.303,-81.137 -50.922,-81.28 C-43.344,-82.061 -47.449,-78.22 -45.609,-77.374 C-43.249,-76.287 -41.625,-80.577 -38.344,-76.983 C-37.121,-75.643 -32.354,-76.086 -31.938,-73.702 C-31.481,-71.088 -36.469,-67.608 -33.813,-64.874 C-33.14,-64.181 -30.202,-64.464 -28.969,-63.468 C-27.321,-62.136 -28.578,-59.952 -26.235,-59.093 C-23.647,-58.144 -23.188,-65.265 -23.188,-67.842 C-23.188,-71.796 -16.341,-70.621 -14.759,-73.389 C-13.178,-76.156 -22.271,-82.482 -16.736,-82.878 C-11.201,-83.273 -8.716,-83.027 -6.403,-82.718 C-4.09,-82.408 -2.696,-75.283 0.866,-75.283 C4.428,-75.283 8.3,-78.071 10.314,-76.522 C12.327,-74.973 16.044,-73.115 20.071,-73.425 C24.098,-73.734 27.971,-75.283 27.816,-78.691 C27.661,-82.098 25.492,-83.802 30.294,-83.802 C35.095,-83.802 38.812,-77.297 41.6,-77.297 C44.388,-77.297 55.54,-78.846 60.341,-79 C65.746,-79.656 71.86,-91.442 74.075,-86.718 L74.126,-86.744 C77.843,-88.293 79.392,-86.59 83.264,-88.139 C87.136,-89.687 87.601,-94.489 91.782,-94.489 C95.964,-94.489 99.264,-91.116 101.267,-93.369 C103.269,-95.622 104.02,-100.879 111.53,-101.13 C113.462,-101.165 115.269,-101.589 116.956,-102.56 C117.514,-102.902 118.117,-103.195 118.589,-103.658 C118.625,-103.693 118.618,-103.763 118.661,-103.79 C118.996,-104.003 119.529,-104.053 119.91,-104.167 z M46.796,420.605 C46.324,420.788 46.022,420.906 45.819,421.114 C45.616,421.322 45.512,421.619 45.435,422.163 C45.273,423.785 46.246,424.677 47.179,425.731 C48.111,426.785 49.003,428.002 48.679,430.272 C48.354,432.543 47.868,433.597 47.787,434.448 C47.706,435.3 48.03,435.949 49.328,437.408 C50.625,438.868 51.758,437.415 52.852,435.675 C53.946,433.935 55,431.908 56.139,432.218 C57.923,432.705 58.734,432.867 59.099,432.502 C59.464,432.137 59.383,431.245 59.383,429.623 C59.383,428.002 58.572,426.461 57.396,425.204 C56.22,423.947 54.68,422.974 53.22,422.487 C52.178,422.104 51.138,421.631 50.076,421.256 C49.014,420.88 47.929,420.601 46.796,420.605 z M49.59,386.653 C48.375,386.749 46.875,386.84 45.626,387.286 C44.377,387.733 43.378,388.534 43.164,390.05 C43.165,391.348 44.622,393.224 46.365,394.973 C48.107,396.722 50.134,398.344 51.274,399.133 C53.382,400.592 55.411,401.403 56.914,401.525 C58.416,401.647 59.391,401.079 59.39,399.781 C59.391,398.484 59.064,397.592 58.535,396.66 C58.006,395.727 57.275,394.754 56.464,393.294 C55.653,391.835 55.166,390.375 54.436,389.199 C53.706,388.023 52.733,387.131 50.949,386.807 L50.27,386.73 L49.59,386.653 z M76.999,388.548 L76.216,388.536 C75.702,388.622 75.188,388.704 74.674,388.784 C74.459,388.824 74.332,388.871 73.655,389.077 C72.682,389.402 72.374,390.699 72.909,392.119 C73.444,393.538 74.823,395.078 77.223,395.889 C80.585,397.024 82.278,396.457 82.793,395.24 C83.308,394.024 82.645,392.159 81.295,390.699 C80.659,390.172 80.018,389.656 79.319,389.261 C78.62,388.867 77.864,388.593 76.999,388.548 z M-283.466,282.197 L-283.891,282.226 C-285.876,282.475 -288.358,283.84 -286.125,285.701 C-283.891,287.562 -281.161,288.431 -281.161,288.927 C-281.161,285.616 -271.73,289.672 -273.467,286.445 C-275.557,283.259 -279.914,282.4 -283.466,282.197 z M-250.605,267.887 C-253.112,268.271 -254.181,269.157 -255.599,271.307 C-256.84,273.183 -257.409,279.042 -254.854,278.255 C-251.628,277.263 -243.12,277.263 -241.701,275.277 C-240.282,273.292 -241.205,273.044 -246.416,269.431 C-247.708,268.62 -249.028,267.892 -250.605,267.887 z M-301.822,146.992 L-301.823,146.993 C-304.642,148.053 -306.596,150.391 -308.957,152.182 C-312.928,155.16 -311.687,161.365 -309.949,162.605 C-308.212,163.846 -303.993,162.854 -299.278,161.613 C-299.278,161.613 -294.314,160.62 -294.314,157.394 C-294.314,154.168 -296.796,151.686 -299.278,148.211 C-299.978,147.383 -300.658,146.828 -301.822,146.992 z M145.954,-95.196 C145.794,-95.16 145.593,-95.2 145.474,-95.087 C145.18,-94.807 145.386,-93.644 145.372,-93.329 C145.267,-90.957 145.412,-91.601 144.604,-89.936 C142.492,-86.92 140.08,-88.729 140.08,-86.317 C140.08,-83.904 143.699,-82.094 145.81,-82.396 C147.921,-82.698 155.762,-85.11 159.08,-85.11 C162.397,-85.11 162.397,-80.777 162.397,-75.158 C162.397,-69.539 159.683,-71.583 159.683,-69.126 C159.683,-66.67 160.889,-61.989 162.699,-61.989 C167.524,-61.989 168.73,-64.301 169.032,-67.92 C169.334,-71.539 171.055,-73.348 175.492,-73.047 C179.93,-72.745 183.206,-71.583 187.73,-70.031 C192.254,-68.479 195.953,-71.583 195.953,-74.856 C195.953,-78.13 192.254,-77.571 186.825,-77.571 C181.397,-77.571 180.794,-80.777 178.984,-83.602 C177.175,-86.428 173.556,-85.412 171.055,-86.618 C168.553,-87.825 168.73,-94.158 165.133,-94.158 C161.536,-94.158 160.286,-92.047 156.365,-91.745 C152.445,-91.444 151.842,-92.047 147.619,-94.459 C146.612,-95.001 147.163,-94.746 145.954,-95.196 z M135.524,-80.713 L134.916,-80.7 C132.587,-79.849 133.557,-80.339 131.937,-79.38 C129.223,-77.571 127.879,-70.113 131.334,-71.84 C136.762,-74.555 137.584,-76.063 137.584,-78.777 C137.394,-80.192 137,-80.644 135.524,-80.713 z" fill="blue" data-name="federation"/>
    <path d="M-66.311,57.518 C-64.814,57.368 -63.809,57.312 -63.107,57.312 C-62.405,57.312 -62.005,57.368 -61.72,57.443 C-61.436,57.518 -61.265,57.612 -61.02,57.686 C-60.775,57.761 -60.456,57.817 -59.874,57.817 C-59.292,57.817 -58.922,57.64 -58.576,57.402 C-58.231,57.165 -57.911,56.868 -57.429,56.629 C-56.948,56.391 -56.306,56.21 -55.316,56.207 C-54.326,56.203 -52.988,56.376 -51.117,56.844 C-50.87,56.906 -50.589,57.008 -50.285,57.12 C-49.981,57.232 -49.655,57.354 -49.316,57.456 C-48.977,57.559 -48.627,57.641 -48.274,57.674 C-47.922,57.707 -47.569,57.69 -47.225,57.593 C-46.7,57.445 -46.124,57.287 -45.538,57.13 C-44.952,56.972 -44.355,56.815 -43.79,56.67 C-43.224,56.524 -42.688,56.39 -42.224,56.278 C-41.76,56.167 -41.368,56.077 -41.087,56.021 C-40.713,55.946 -40.414,55.919 -40.138,55.929 C-39.862,55.939 -39.61,55.986 -39.329,56.061 C-39.049,56.137 -38.74,56.24 -38.352,56.361 C-37.963,56.482 -37.495,56.622 -36.895,56.769 C-36.719,56.813 -36.542,56.797 -36.365,56.754 C-36.188,56.71 -36.011,56.64 -35.835,56.573 C-35.659,56.506 -35.483,56.443 -35.309,56.416 C-35.135,56.389 -34.962,56.397 -34.791,56.473 C-34.536,56.586 -34.282,56.735 -34.04,56.887 C-33.797,57.039 -33.566,57.195 -33.355,57.324 C-33.144,57.453 -32.953,57.554 -32.791,57.597 C-32.63,57.639 -32.498,57.624 -32.404,57.518 C-31.964,57.021 -31.481,56.623 -30.985,56.277 C-30.489,55.931 -29.98,55.637 -29.488,55.349 C-28.995,55.061 -28.519,54.778 -28.088,54.455 C-27.658,54.131 -27.273,53.766 -26.964,53.314 C-26.645,52.849 -26.284,52.237 -25.96,51.55 C-25.636,50.864 -25.348,50.103 -25.178,49.34 C-25.007,48.577 -24.953,47.812 -25.095,47.117 C-25.238,46.423 -25.577,45.799 -26.192,45.317 C-27.483,44.307 -28.49,43.86 -29.306,43.745 C-30.122,43.629 -30.748,43.845 -31.277,44.161 C-31.806,44.476 -32.24,44.891 -32.671,45.174 C-33.102,45.457 -33.53,45.607 -34.051,45.392 C-34.328,45.278 -34.559,45.092 -34.773,44.859 C-34.987,44.625 -35.184,44.345 -35.395,44.043 C-35.605,43.741 -35.828,43.418 -36.093,43.098 C-36.358,42.778 -36.666,42.461 -37.045,42.174 C-37.379,41.921 -37.765,41.684 -38.205,41.458 C-38.645,41.231 -39.139,41.014 -39.686,40.799 C-40.234,40.584 -40.836,40.371 -41.494,40.154 C-42.151,39.936 -42.863,39.714 -43.632,39.479 C-44.042,39.354 -44.341,39.422 -44.606,39.595 C-44.871,39.768 -45.103,40.046 -45.379,40.339 C-45.656,40.632 -45.977,40.941 -46.42,41.177 C-46.864,41.413 -47.431,41.575 -48.198,41.575 C-49.086,41.575 -50.279,41.361 -51.568,40.988 C-52.857,40.615 -54.243,40.083 -55.518,39.447 C-56.793,38.812 -57.957,38.073 -58.802,37.287 C-59.647,36.5 -60.174,35.666 -60.174,34.838 C-60.174,34.011 -60.222,33.085 -60.351,32.131 C-60.479,31.177 -60.688,30.195 -61.007,29.254 C-61.326,28.314 -61.757,27.416 -62.33,26.63 C-62.902,25.844 -63.617,25.171 -64.506,24.681 C-65.394,24.191 -66.321,23.586 -67.236,22.96 C-68.151,22.334 -69.055,21.687 -69.897,21.112 C-70.74,20.538 -71.521,20.036 -72.191,19.701 C-72.861,19.366 -73.42,19.198 -73.818,19.29 C-74.217,19.381 -74.73,19.542 -75.302,19.732 C-75.875,19.921 -76.506,20.14 -77.142,20.346 C-77.778,20.553 -78.417,20.749 -79.005,20.892 C-79.593,21.036 -80.129,21.128 -80.558,21.128 C-80.987,21.128 -81.622,20.967 -82.365,20.726 C-83.108,20.484 -83.958,20.163 -84.816,19.841 C-85.674,19.519 -86.539,19.198 -87.313,18.956 C-88.086,18.715 -88.768,18.554 -89.258,18.554 C-89.748,18.554 -90.177,18.746 -90.562,19.046 C-90.947,19.347 -91.287,19.757 -91.601,20.193 C-91.915,20.63 -92.203,21.093 -92.48,21.501 C-92.758,21.909 -93.026,22.261 -93.302,22.476 C-93.577,22.69 -94.067,22.851 -94.663,22.989 C-95.258,23.126 -95.959,23.241 -96.656,23.364 C-97.353,23.486 -98.046,23.617 -98.626,23.785 C-99.206,23.954 -99.674,24.16 -99.919,24.436 C-100.164,24.712 -100.585,24.972 -101.094,25.227 C-101.604,25.481 -102.201,25.73 -102.798,25.983 C-103.396,26.236 -103.993,26.492 -104.502,26.762 C-105.012,27.032 -105.433,27.316 -105.678,27.622 C-105.923,27.928 -106.045,28.311 -106.116,28.734 C-106.187,29.158 -106.206,29.621 -106.245,30.088 C-106.283,30.555 -106.34,31.026 -106.488,31.465 C-106.635,31.903 -106.873,32.309 -107.271,32.646 C-107.669,32.983 -107.983,33.397 -108.228,33.866 C-108.473,34.335 -108.649,34.859 -108.772,35.418 C-108.894,35.978 -108.963,36.571 -108.994,37.178 C-109.025,37.785 -109.017,38.405 -108.986,39.018 C-108.956,39.631 -109.17,40.105 -109.501,40.55 C-109.833,40.994 -110.281,41.407 -110.717,41.898 C-111.154,42.388 -111.579,42.954 -111.864,43.705 C-112.149,44.456 -112.295,45.39 -112.172,46.615 C-112.05,47.841 -111.728,48.852 -111.29,49.704 C-110.851,50.556 -110.296,51.249 -109.706,51.838 C-109.117,52.428 -108.492,52.914 -107.916,53.353 C-107.34,53.791 -106.811,54.182 -106.413,54.58 C-106.015,54.978 -105.471,55.522 -104.828,56.116 C-104.184,56.709 -103.442,57.352 -102.645,57.95 C-101.849,58.547 -100.998,59.099 -100.141,59.508 C-99.283,59.918 -98.418,60.186 -97.59,60.217 C-96.763,60.247 -95.584,59.995 -94.234,59.598 C-92.884,59.202 -91.364,58.662 -89.855,58.118 C-88.347,57.575 -86.849,57.027 -85.545,56.615 C-84.242,56.204 -83.131,55.928 -82.396,55.928 C-81.661,55.928 -80.593,56.058 -79.328,56.245 C-78.063,56.432 -76.602,56.677 -75.08,56.906 C-73.558,57.135 -71.975,57.349 -70.469,57.475 C-68.962,57.601 -67.531,57.64 -66.311,57.518 z" fill="brown" data-name="cardassian"/>
    <path d="M-52.428 22.994c-2.927.034-1.914-2.898-1.367-3.718.547-.82.984-1.531.875-2.461-.109-.929-2.299-1.486-3.382-1.558-1.315-.088-3.234-.41-4.163-1.011-.93-.602-1.203-3.062-1.476-4.046-.274-.985-1.477-3.281-1.367-4.101.109-.82 3.335-2.187 4.702-1.914 1.367.274 2.569 3.062 2.569 3.062s2.68.656 3.554 1.094c.875.437 2.953 1.421 2.953 1.421s2.843-.383 3.772.164c.93.547 5.114 1.666 5.06 4.454-.055 2.788-7.247 5.333-7.247 5.333s.219 3.226-4.483 3.281z" fill="aqua" data-name="tzenketh"/>
    <path d="M-109.149 23.368c-.733 2.785-12.048-6.11-13.576-11.879-1.527-5.77-5.43-23.928-9.673-26.304-4.242-2.376-10.012-2.545-14.085 1.697-4.072 4.243-7.466 7.297-11.539 5.94-4.073-1.358-3.564-5.091-2.037-6.449 1.528-1.358 7.976-2.545 8.825-5.6.848-3.055 8.824-10.012 9.164-15.273.339-5.261-5.77-7.467-11.37-6.788-5.6.679-9.504 8.824-20.195 9.503-10.691.679-4.412 13.916-17.139 13.576-12.728-.339.339-8.824-1.697-14.594-2.037-5.77-6.619-9.164-11.37-10.012-4.752-.849-7.806-8.994 3.394-8.316 11.2.679 11.539 13.576 15.273 14.255 3.733.679 4.073-4.242 6.957-4.242 2.885 0 7.298-.17 7.976-2.037.679-1.866-2.206-7.297-4.751-7.806-2.546-.509-9.334-3.903-2.546-6.788 6.788-2.885 4.922 2.376 8.316 4.752 3.394 2.376 5.43.848 6.957-1.358 1.528-2.206 2.376-9.842 3.225-10.352.848-.509.509-3.394-3.055-4.921-3.564-1.527-8.146-3.224-10.012-4.412-1.867-1.188 1.018-4.921-3.903-4.243-4.922.679-10.182 5.77-18.837 2.885s-15.952-6.279-13.067-11.2c2.885-4.921 10.861 4.412 19.346 4.073 8.485-.339 10.182-3.564 12.727-5.261 2.546-1.697 1.528-6.618 5.6-7.636 4.073-1.018 2.716-4.582.509-7.467-2.206-2.885-6.278-8.655-12.048-10.182-5.77-1.527-10.182-8.655-6.788-12.388 3.394-3.733 9.503-8.655 18.158-3.394 8.654 5.261 20.533 8.655 23.079 6.109 2.545-2.545-7.976-6.957-10.352-13.406-2.376-6.449.509-8.315-1.697-12.388s-6.109 6.279-13.406.679c-7.297-5.6-2.037-11.37-1.188-13.067.848-1.697 7.127-2.546 7.127-4.412 0-1.867-1.357-9.334 2.206-10.013 3.564-.678 4.922 13.067 8.485 14.085 3.564 1.019 4.752 1.528 6.449 2.206 1.697.679 6.449 7.976 13.406 6.11 6.958-1.867 7.976 1.527 9.673-1.188s-6.279-8.994-6.279-11.879 7.976-5.261 10.691-4.243c2.716 1.018 12.558 2.885 14.085-2.036 1.528-4.921 2.716-13.746 6.619-13.576 3.903.17 1.527 8.994 4.242 12.727 2.715 3.734 11.37 7.297 11.54 9.334.169 2.036-16.122 1.357-19.346 3.564-3.224 2.206-8.485 7.466-4.073 9.842 4.412 2.376 11.54-3.054 15.952-1.188 4.412 1.867 5.091 6.958 6.618 9.164 1.528 2.206 2.037 5.94-1.697 8.315-3.733 2.376-8.654 1.697-13.406-.509-4.752-2.206-12.388-6.109-14.085-3.733-1.697 2.376 2.036 7.297 9.843 11.03 7.806 3.734 9.333 4.582 8.315 8.655-1.018 4.073-16.461 2.036-13.916 8.485 2.546 6.449 16.292-3.055 21.892.509 5.6 3.564 6.957 17.819-1.697 19.346-8.655 1.527-21.382-6.788-24.946-1.358-3.564 5.431-4.921 25.455 10.521 28.679 15.443 3.225 12.897 5.94 11.031 8.825-1.867 2.885-18.498-8.146-22.57-6.618-4.073 1.527.339 11.03 3.563 16.291 3.225 5.26 2.885 9.673 5.091 12.218 2.206 2.546 8.994 5.6 13.067 9.503 4.073 3.903 2.885 10.352 4.243 12.388 1.357 2.037 9.673 9.337 6.957 10.778-2.715 1.441-9.503-3.99-11.539-7.723-2.037-3.733-5.94-14.425-10.861-12.218-4.921 2.206.679 7.806-1.527 11.2-2.206 3.394-10.352-2.206-12.219-.17-1.866 2.036 3.055 11.54 3.225 16.291.169 4.752 8.994 12.388 8.145 15.613z" fill="darkseagreen" data-name="breen"/>
    <path d="M29.301,-6.109 C27.541,-7.976 26.147,-10.099 25.029,-12.333 C23.912,-14.568 23.072,-16.914 22.419,-19.228 C21.767,-21.543 21.303,-23.826 20.938,-25.933 C20.573,-28.041 20.308,-29.974 20.053,-31.588 C19.812,-33.113 19.734,-34.527 19.788,-35.857 C19.842,-37.187 20.029,-38.433 20.316,-39.623 C20.603,-40.813 20.991,-41.946 21.449,-43.049 C21.907,-44.153 22.435,-45.226 23.002,-46.297 C23.568,-47.368 24.324,-48.509 25.183,-49.629 C26.041,-50.75 27.001,-51.848 27.978,-52.832 C28.954,-53.816 29.946,-54.686 30.867,-55.35 C31.789,-56.013 32.639,-56.47 33.332,-56.627 C34.025,-56.785 35.395,-57.013 37.157,-57.238 C38.918,-57.462 41.072,-57.682 43.332,-57.824 C45.591,-57.966 47.957,-58.029 50.144,-57.938 C52.331,-57.848 54.339,-57.604 55.882,-57.131 C57.426,-56.659 59.134,-55.982 60.87,-55.228 C62.607,-54.474 64.37,-53.643 66.024,-52.864 C67.677,-52.084 69.221,-51.356 70.516,-50.807 C71.811,-50.257 72.858,-49.887 73.52,-49.824 C74.181,-49.761 75.299,-49.793 76.644,-49.844 C77.988,-49.895 79.559,-49.966 81.126,-49.982 C82.693,-49.998 84.255,-49.958 85.584,-49.789 C86.913,-49.62 88.007,-49.32 88.637,-48.817 C89.267,-48.313 89.779,-47.698 90.2,-47.059 C90.621,-46.419 90.952,-45.754 91.22,-45.147 C91.488,-44.541 91.692,-43.994 91.862,-43.59 C92.031,-43.187 92.165,-42.927 92.291,-42.895 C92.417,-42.864 93.094,-43.148 94.039,-43.656 C94.985,-44.164 96.198,-44.895 97.395,-45.759 C98.593,-46.623 99.775,-47.619 100.657,-48.656 C101.539,-49.693 102.122,-50.77 102.122,-51.796 C102.122,-52.823 101.923,-54.212 101.652,-55.734 C101.381,-57.255 101.039,-58.909 100.754,-60.462 C100.469,-62.016 100.241,-63.47 100.198,-64.592 C100.155,-65.715 100.298,-66.506 100.754,-66.734 C101.21,-66.962 101.737,-67.09 102.288,-67.104 C102.838,-67.119 103.412,-67.019 103.961,-66.791 C104.51,-66.563 105.033,-66.206 105.484,-65.708 C105.935,-65.209 106.313,-64.567 106.569,-63.769 C106.826,-62.971 106.961,-61.41 107.057,-59.509 C107.154,-57.608 107.211,-55.367 107.31,-53.207 C107.41,-51.048 107.553,-48.971 107.82,-47.397 C108.087,-45.824 108.479,-44.755 109.078,-44.613 C109.676,-44.47 110.874,-45.382 112.369,-46.863 C113.863,-48.343 115.656,-50.392 117.445,-52.523 C119.233,-54.654 121.019,-56.867 122.499,-58.675 C123.98,-60.484 125.156,-61.888 125.726,-62.401 C126.296,-62.914 127.009,-63.498 127.78,-64.049 C128.551,-64.599 129.382,-65.116 130.187,-65.494 C130.992,-65.872 131.773,-66.11 132.444,-66.105 C133.116,-66.1 133.679,-65.85 134.05,-65.252 C134.42,-64.653 133.843,-62.928 132.722,-60.646 C131.602,-58.364 129.938,-55.524 128.135,-52.694 C126.331,-49.865 124.389,-47.046 122.713,-44.807 C121.036,-42.567 119.625,-40.907 118.884,-40.394 C118.143,-39.881 118.257,-39.766 118.916,-39.832 C119.575,-39.898 120.78,-40.144 122.219,-40.351 C123.659,-40.558 125.334,-40.725 126.934,-40.634 C128.534,-40.543 130.059,-40.194 131.199,-39.367 C132.339,-38.541 133.622,-38.455 134.924,-38.826 C136.227,-39.196 137.549,-40.023 138.768,-41.021 C139.986,-42.019 141.102,-43.187 141.991,-44.242 C142.88,-45.297 143.542,-46.238 143.856,-46.779 C144.17,-47.321 145.089,-47.834 146.304,-48.367 C147.519,-48.899 149.03,-49.452 150.527,-50.072 C152.023,-50.692 153.506,-51.379 154.664,-52.183 C155.822,-52.986 156.656,-53.906 156.855,-54.989 C157.055,-56.072 157.204,-57.12 157.363,-58.082 C157.521,-59.044 157.689,-59.921 157.924,-60.662 C158.159,-61.403 158.462,-62.009 158.892,-62.429 C159.321,-62.85 159.877,-63.085 160.618,-63.085 C161.359,-63.085 162.278,-63.035 163.285,-62.989 C164.292,-62.942 165.386,-62.9 166.476,-62.914 C167.566,-62.928 168.653,-62.999 169.646,-63.181 C170.638,-63.363 171.536,-63.655 172.249,-64.111 C172.961,-64.567 173.76,-65.088 174.592,-65.61 C175.424,-66.132 176.29,-66.655 177.138,-67.119 C177.986,-67.582 178.816,-67.985 179.577,-68.264 C180.337,-68.544 181.029,-68.701 181.599,-68.672 C182.169,-68.644 182.832,-68.587 183.55,-68.524 C184.268,-68.462 185.041,-68.394 185.832,-68.344 C186.623,-68.295 187.432,-68.263 188.221,-68.271 C189.011,-68.28 189.78,-68.33 190.493,-68.444 C191.206,-68.558 191.947,-68.879 192.699,-69.289 C193.451,-69.699 194.213,-70.197 194.969,-70.668 C195.724,-71.138 196.472,-71.58 197.196,-71.876 C197.919,-72.172 198.617,-72.321 199.273,-72.207 C199.929,-72.093 200.592,-71.537 201.219,-70.746 C201.846,-69.955 202.437,-68.929 202.95,-67.874 C203.464,-66.819 203.898,-65.736 204.212,-64.831 C204.525,-63.926 204.718,-63.199 204.746,-62.857 C204.775,-62.515 205.024,-62.059 205.372,-61.51 C205.719,-60.961 206.165,-60.32 206.585,-59.607 C207.006,-58.895 207.401,-58.111 207.649,-57.277 C207.896,-56.443 207.996,-55.559 207.825,-54.647 C207.654,-53.735 207.405,-53.136 207.105,-52.753 C206.806,-52.37 206.457,-52.203 206.086,-52.153 C205.716,-52.103 205.324,-52.17 204.939,-52.258 C204.554,-52.345 204.176,-52.452 203.834,-52.48 C203.492,-52.509 202.836,-53.272 201.999,-54.399 C201.162,-55.527 200.143,-57.02 199.074,-58.51 C198.005,-59.999 196.886,-61.485 195.849,-62.599 C194.812,-63.712 193.857,-64.453 193.116,-64.453 C192.374,-64.453 191.705,-64.311 191.085,-64.058 C190.465,-63.805 189.894,-63.441 189.353,-62.999 C188.811,-62.558 188.298,-62.037 187.792,-61.471 C187.286,-60.904 186.787,-60.291 186.274,-59.664 C185.761,-59.037 185.098,-58.681 184.362,-58.476 C183.626,-58.271 182.818,-58.217 182.012,-58.196 C181.207,-58.175 180.405,-58.185 179.684,-58.109 C178.962,-58.032 178.321,-57.868 177.836,-57.498 C177.351,-57.127 177.116,-56.721 176.951,-56.284 C176.785,-55.848 176.689,-55.381 176.482,-54.889 C176.275,-54.398 175.958,-53.881 175.351,-53.345 C174.743,-52.808 173.845,-52.252 172.477,-51.682 C171.108,-51.112 170.153,-50.984 169.418,-51.066 C168.682,-51.148 168.165,-51.44 167.673,-51.711 C167.182,-51.982 166.715,-52.231 166.079,-52.227 C165.443,-52.224 164.637,-51.967 163.469,-51.226 C162.3,-50.485 161.487,-49.573 160.835,-48.575 C160.183,-47.577 159.691,-46.494 159.164,-45.411 C158.637,-44.328 158.074,-43.244 157.279,-42.247 C156.484,-41.249 155.458,-40.337 154.004,-39.595 C152.551,-38.854 151.496,-38.455 150.717,-38.252 C149.939,-38.049 149.436,-38.042 149.087,-38.085 C148.738,-38.127 148.542,-38.22 148.376,-38.216 C148.21,-38.213 148.075,-38.113 147.847,-37.771 C147.619,-37.429 147.512,-37.073 147.446,-36.718 C147.38,-36.363 147.355,-36.011 147.291,-35.676 C147.227,-35.341 147.124,-35.024 146.901,-34.74 C146.678,-34.457 146.336,-34.208 145.794,-34.008 C145.253,-33.809 144.718,-33.73 144.191,-33.72 C143.664,-33.709 143.143,-33.766 142.63,-33.837 C142.117,-33.908 141.611,-33.994 141.112,-34.04 C140.613,-34.087 140.122,-34.094 139.637,-34.008 C139.152,-33.923 138.746,-33.659 138.381,-33.313 C138.016,-32.968 137.691,-32.54 137.371,-32.127 C137.05,-31.713 136.733,-31.314 136.382,-31.026 C136.031,-30.737 135.646,-30.559 135.19,-30.587 C134.734,-30.616 134.221,-30.765 133.674,-30.965 C133.127,-31.165 132.546,-31.414 131.954,-31.642 C131.363,-31.87 130.761,-32.077 130.171,-32.191 C129.581,-32.305 129.004,-32.326 128.462,-32.184 C127.921,-32.041 127.173,-31.7 126.356,-31.166 C125.539,-30.632 124.653,-29.906 123.834,-28.994 C123.015,-28.083 122.263,-26.985 121.716,-25.709 C121.169,-24.433 120.825,-22.978 120.823,-21.351 C120.818,-18.686 121.452,-16.251 122.392,-13.913 C123.333,-11.575 124.579,-9.333 125.799,-7.053 C127.019,-4.772 128.213,-2.453 129.049,0.039 C129.885,2.531 130.363,5.196 130.15,8.17 C130.01,10.142 129.483,12.338 128.599,14.532 C127.715,16.725 126.474,18.916 124.906,20.876 C123.338,22.836 121.442,24.565 119.248,25.837 C117.054,27.108 114.562,27.921 111.801,28.048 C109.939,28.134 107.393,28.107 104.544,27.983 C101.695,27.859 98.543,27.637 95.471,27.333 C92.399,27.03 89.406,26.644 86.875,26.192 C84.344,25.739 82.274,25.221 81.048,24.65 C79.822,24.08 76.577,22.511 72.248,20.318 C67.918,18.125 62.505,15.309 56.945,12.245 C51.384,9.181 45.676,5.869 40.757,2.684 C35.837,-0.5 31.707,-3.556 29.301,-6.109 z" stroke-width=".5" fill="green" data-name="romulan" data-sto="hidden" />
    <path d="M28.882,-4.623 C32.97,-1.233 36.157,5.276 40.293,3.208 C44.589,1.06 49.228,4.939 52.295,5.735 C55.707,6.619 53.938,3.587 55.454,2.197 C57.015,0.766 63.939,-1.557 67.212,-1.557 C70.485,-1.557 72.977,-0.85 73.94,-3.737 C74.902,-6.625 76.442,-10.861 75.672,-13.941 C74.902,-17.022 71.6,-16.13 71.155,-22.145 C70.935,-25.102 73.17,-28.188 71.437,-30.499 C69.704,-32.809 54.879,-34.542 52.377,-34.542 C49.874,-34.542 50.567,-40.202 48.911,-41.858 C46.793,-43.976 45.253,-48.404 39.862,-47.826 C34.655,-47.268 25.891,-54.896 24.075,-51.869 C21.187,-47.056 26.193,-43.783 23.882,-38.777 C20.851,-32.209 15.716,-25.15 14.864,-21.598 C12.186,-10.431 25.613,-7.333 28.882,-4.623 z" fill="green" data-name="romulan" data-sto="only" />
    <path d="M50.341,34.255 C48.852,32.565 49.055,31.179 51.113,28.56 C53.171,25.941 54.727,22.975 54.727,18.266 C54.727,13.557 55.699,11.768 54.727,9.176 C52.428,3.043 54.905,1.906 56.918,1.072 C60.313,-0.336 63.488,-1.776 64.912,-0.68 C67.243,1.113 65.679,5.014 68.198,4.467 C68.863,4.322 70.085,5.233 72.25,5.233 C74.415,5.233 75.956,1.914 77.616,1.619 C81.053,1.01 82.201,4.408 81.12,8.19 C79.822,12.736 82.873,14.433 81.887,19.142 C81.64,20.322 75.973,24.068 75.973,26.589 C75.973,29.11 74.545,35.678 71.483,35.678 C68.422,35.678 65.084,34.418 62.028,34.225 C53.851,33.707 54.284,38.727 50.341,34.255 z" fill="lightgreen" data-name="romulan-republic" data-sto="only" />
    <path d="M88.142,-3.975 C83.315,-4.093 86.066,-13.546 86.066,-16.545 C86.066,-19.543 84.567,-23.118 84.913,-27.384 C85.259,-31.651 88.603,-31.42 91.486,-33.035 C94.369,-34.649 93.907,-35.456 97.597,-35.341 C101.287,-35.226 110.974,-31.074 111.896,-24.732 C112.819,-18.39 110.859,-9.741 108.437,-6.973 C106.015,-4.206 102.095,-1.208 98.635,-1.438 C95.176,-1.669 92.869,-3.86 88.142,-3.975 z" fill="darkgreen" data-name="borg" data-sto="only" />
    <path d="M136.066,17.397 L136.271,17.492 L136.476,17.587 C137.244,18.355 138.204,19.635 139.227,20.722 C140.251,21.81 141.339,22.706 142.363,22.706 C143.387,22.706 147.354,22.706 151.161,23.378 C154.969,24.05 158.616,25.394 159,28.081 C159.384,30.769 156.504,32.944 152.281,34.416 C148.058,35.888 142.491,36.656 137.5,36.528 C132.509,36.4 128.989,35.632 126.526,35.184 C124.062,34.736 122.654,34.608 121.886,35.76 C121.119,36.912 120.991,37.872 120.991,38.735 C120.991,39.599 121.119,40.367 120.863,41.135 C120.607,41.903 118.879,42.415 117.215,42.895 C115.551,43.375 113.952,43.822 113.952,44.462 C113.952,45.102 116.895,47.342 119.839,49.933 C122.782,52.525 125.726,55.468 125.726,57.516 C125.726,59.564 124.83,62.955 124.158,66.123 C123.486,69.29 123.038,72.234 123.934,73.385 C124.83,74.537 127.837,73.961 130.813,73.353 C133.788,72.746 136.732,72.106 137.5,73.129 C138.268,74.153 136.668,76.969 135.388,79.944 C134.108,82.92 133.148,86.055 135.196,87.719 C137.244,89.383 138.715,90.79 140.059,91.366 C141.403,91.942 142.619,91.686 144.155,90.023 C145.69,88.359 146.65,86.119 147.514,84.104 C148.378,82.088 149.146,80.296 150.298,79.528 C151.449,78.76 153.049,79.016 154.617,79.464 C156.184,79.912 157.72,80.552 158.744,80.552 C159.768,80.552 161.041,78.063 162.333,75.299 C163.624,72.536 164.934,69.498 166.03,68.402 C167.126,67.306 169.24,66.914 171.549,66.758 C173.859,66.601 176.364,66.679 178.243,66.523 C180.123,66.366 180.749,67.306 181.375,68.284 C182.002,69.263 182.628,70.281 184.507,70.281 C186.386,70.281 188.343,68.558 190.222,66.836 C192.101,65.114 193.902,63.391 195.468,63.391 C197.034,63.391 198.287,66.053 199.461,68.793 C200.635,71.534 201.731,74.352 202.984,74.665 C204.237,74.978 205.959,74.352 207.877,74.626 C209.796,74.9 211.91,76.075 213.945,79.989 C215.981,83.904 219.113,87.819 222.401,90.755 C225.689,93.691 229.134,95.648 231.796,95.648 C234.458,95.648 237.511,95.256 240.369,94.865 C243.227,94.473 245.889,94.082 247.768,94.082 C249.647,94.082 254.188,94.787 259.708,95.491 C265.227,96.196 271.726,96.901 277.519,96.901 C283.313,96.901 289.263,96.196 293.883,95.217 C298.502,94.239 301.79,92.986 302.26,91.89 C302.73,90.794 302.025,88.21 301.32,85.548 C300.616,82.886 299.911,80.146 300.381,78.737 C300.851,77.327 304.374,75.526 308.523,74.626 C312.673,73.726 317.449,73.726 320.424,75.918 C323.399,78.11 325.2,81.242 326.609,83.904 C328.018,86.566 329.036,88.758 330.445,89.071 C331.855,89.384 333.969,88.523 336.2,88.367 C338.431,88.21 340.78,88.758 342.659,91.89 C344.538,95.022 347.827,99.249 350.88,103.595 C353.933,107.94 356.752,112.403 357.692,116.004 C358.631,119.606 360.432,120.232 361.998,120.584 C363.564,120.937 364.895,121.015 364.895,123.52 C364.895,126.026 364.66,128.374 364.855,130.058 C365.051,131.741 365.677,132.759 367.4,132.602 C369.122,132.446 372.88,131.193 376.56,130.919 C380.24,130.645 383.841,131.35 385.251,135.108 C386.66,138.866 386.582,141.606 385.916,143.485 C385.251,145.364 383.998,146.382 383.059,146.695 C382.119,147.008 379.379,143.876 376.325,141.175 C373.272,138.474 369.905,136.204 367.713,138.239 C365.521,140.275 366.147,142.702 367.674,144.894 C369.201,147.087 371.628,149.044 373.037,150.14 C374.446,151.236 377.578,152.332 380.592,154.172 C383.607,156.012 386.503,158.596 387.443,162.667 C388.382,166.738 388.304,168.93 388.03,170.418 C387.756,171.905 387.286,172.688 387.443,173.941 C387.6,175.194 389.087,175.272 390.653,175.624 C392.219,175.977 393.863,176.603 394.333,178.952 C394.802,181.301 394.16,182.515 393.568,183.533 C392.976,184.551 392.433,185.372 393.102,186.933 C394.075,188.962 395.7,190.772 397.255,192.61 C398.809,194.448 400.293,196.314 400.983,198.455 C401.021,200.26 401.031,200.71 401.04,201.163 C401.05,201.616 401.059,202.073 401.098,203.893 C400.131,207.298 398.928,211.438 397.421,215.426 C395.913,219.413 394.1,223.249 391.913,226.046 C390.351,227.756 387.786,228.648 385.295,229.15 C382.804,229.652 380.387,229.764 379.123,229.913 C377.859,230.061 376.781,230.991 375.74,231.883 C374.699,232.775 373.695,233.631 372.579,233.631 C371.464,233.631 368.861,233.519 366.129,233.5 C363.396,233.482 360.533,233.556 358.897,233.928 C357.261,234.3 355.365,235.452 353.413,236.512 C351.461,237.572 349.454,238.538 347.595,238.538 C345.736,238.538 342.947,237.237 340.624,236.679 C338.3,236.122 336.441,236.307 336.441,239.282 C336.441,242.256 339.973,242.107 343.524,241.922 C347.074,241.736 350.644,241.513 350.718,244.338 C350.792,247.164 347.781,247.722 344.211,247.982 C340.642,248.242 336.515,248.205 334.359,249.841 C332.203,251.477 329.897,252.443 327.518,252.722 C325.138,253.001 322.685,252.592 320.231,251.477 C317.777,250.361 313.687,248.837 309.504,247.666 C305.322,246.495 301.046,245.677 298.221,245.974 C295.395,246.272 291.789,245.788 288.851,245.063 C285.914,244.338 283.646,243.372 283.497,242.702 C283.349,242.033 281.973,242.033 280.616,241.829 C279.259,241.624 277.921,241.215 277.846,239.728 C277.772,238.241 279.222,237.386 280.69,236.289 C282.159,235.192 283.646,233.854 283.646,231.4 C283.646,228.946 283.423,224.41 282.698,220.488 C281.973,216.565 280.746,213.256 278.739,213.256 C276.731,213.256 275.467,219.502 274.537,226.158 C273.608,232.813 273.013,239.877 272.344,241.513 C271.674,243.148 266.655,244.784 261.041,245.751 C255.427,246.718 249.218,247.015 246.169,245.974 C243.121,244.933 236.763,240.546 230.628,236.419 C224.494,232.292 218.582,228.425 216.426,228.425 C214.269,228.425 211.369,227.347 208.878,226.009 C206.387,224.67 204.305,223.072 203.785,222.031 C203.264,220.99 203.971,218.275 204.082,215.784 C204.194,213.293 203.71,211.025 200.81,210.877 C197.91,210.728 196.522,213.175 195.341,215.755 C194.161,218.334 193.188,221.045 191.118,221.423 C188.185,221.959 184.171,218.289 180.833,214.026 C177.494,209.763 174.832,204.907 174.603,203.072 C174.373,201.237 174.488,199.746 174.488,198.197 C174.488,196.649 174.373,195.043 173.685,192.979 C172.997,190.914 170.588,186.441 167.664,183.173 C164.739,179.904 161.298,177.84 158.546,180.592 C155.793,183.345 153.384,184.836 151.263,185.581 C149.141,186.327 147.306,186.327 145.7,186.097 C144.094,185.868 143.772,183.478 143.627,181.145 C143.482,178.811 143.515,176.536 142.619,176.536 C141.723,176.536 140.379,179.479 138.747,182.423 C137.116,185.366 135.196,188.31 133.148,188.31 C131.101,188.31 129.181,185.366 127.293,182.455 C125.406,179.543 123.55,176.664 121.63,176.792 C119.711,176.92 117.215,179.351 114.56,181.751 C111.904,184.15 109.089,186.518 106.529,186.518 C103.969,186.518 98.854,183.317 94.058,180.116 C89.263,176.916 84.787,173.715 83.507,173.715 L83.339,173.733 L83.339,173.733 C80.82,174.008 78.845,175.773 76.314,176.042 C73.755,176.042 71.141,171.917 69.861,171.917 C68.582,171.917 67.661,177.373 65.101,177.629 C62.542,177.885 62.672,174.773 59.601,174.773 C56.529,174.773 56.643,177.199 53.571,175.407 C50.5,173.616 50.609,168.743 46.378,168.743 C42.586,168.743 51.032,177.312 45.003,176.677 C40.93,176.248 38.892,168.382 38.762,165.57 C38.55,161.021 30.722,154.463 30.405,149.702 C30.251,147.39 34.564,148.365 35.588,146.317 C35.969,145.556 36.858,143.42 38.832,142.21 C40.001,141.493 42.139,141.839 43.178,140.98 C45.104,139.389 43.342,137.946 46.868,137.126 C50.358,136.314 55.284,134.812 52.725,129.181 C50.165,123.55 43.955,130.206 40.39,130.238 C31.206,130.32 34.718,133.368 32.415,133.623 C31.484,133.727 28.864,132.187 26.021,129.622 C24.629,128.367 22.301,124.898 20.136,123.022 C18.496,121.601 16.903,121.837 16.118,120.398 C14.15,116.79 18.113,115.462 17.922,112.854 C17.776,110.86 12.405,108.772 12.346,107.196 C12.264,104.982 15.668,106.317 16.61,104.49 C19.316,99.242 15.284,103.41 13.412,101.538 C11.362,99.488 12.492,98.005 11.854,95.88 C11.209,93.73 9.804,91.516 9.804,90.468 C9.804,84.837 10.624,81.53 16.432,77.225 C18.517,75.68 22.1,73.299 27.853,72.02 C30.87,71.35 33.308,69.091 35.981,67.82 C38.994,66.386 33.635,62.068 42.19,63.802 C49.202,65.223 50.844,62.193 54.427,63.984 C58.01,65.776 66.479,67.785 69.038,65.993 C70.187,65.189 72.435,64.434 73.704,61.607 C74.974,58.779 77.165,60.662 77.165,58.688 C77.165,57.172 77.107,55.634 76.161,54.305 C74.87,52.492 74.664,49.511 74.609,46.817 C74.517,42.342 76.192,34.58 81.823,34.58 C84.419,34.58 89.676,35.128 92.05,32.206 C93.615,30.28 94.232,27.851 96.45,28.024 C119.301,29.803 122.755,22.55 126.144,20.888 C129.533,19.226 132.934,17.707 136.066,17.397 z" fill="red" data-name="klingon"/>
    <path d="M-63.91-17.756c-2.382-1.334-2.154-3.5-1.975-4.667.18-1.167 1.616-1.974 1.616-3.051 0-1.077.897-5.026 2.602-6.013 1.705-.987 3.59.09 4.308.09s1.974-1.705 3.231-1.705c1.256 0 1.076.807 1.435.807s2.334-1.705 3.59-.089c1.257 1.615-.538 4.577-.449 5.833.09 1.256 2.244 1.346 2.244 4.577s-4.128 1.346-4.846 2.513c-.718 1.166-2.872 2.692-5.744 2.692-2.871 0-3.769.269-6.012-.987z" fill="yellow" data-name="ferengi"/>
    <path d="M-47.008-49.074c-1.645-.076-4.227-.297-5.414-2.447-1.186-2.151.668-4.004 1.039-4.82.37-.816 1.705-3.782 2.595-3.782.89 0 1.705.297 2.966.297 1.261 0 1.854-.89 3.188-.593 1.335.296 4.895.964 4.895 3.188 0 2.225-1.187 4.227-1.928 5.784-.742 1.557-.89 2.67-7.341 2.373z" fill="cornflowerblue" data-name="first-federation"/>
    <path d="M-119.602 108.492c2.051.378 1.22 6.347 3.173 7.323 1.953.977 10.008 1.709 14.402 3.662 4.393 1.953 6.346 7.079 8.055 9.52 1.709 2.441 14.158-1.953 15.378.488 1.221 2.441-8.787 10.984-7.567 13.425 1.221 2.441 7.323 7.323 7.323 9.52 0 2.197-2.685 11.473-5.858 11.473-3.174 0-6.347-1.709-8.788-2.441-2.441-.732-6.835-6.103-9.276-6.591-2.441-.488-14.157-1.708-20.016-4.882-5.858-3.173-2.685-7.567-4.149-8.299-1.465-.732-11.229-5.858-14.158-5.858-2.929 0-10.008-.245-15.622-.245-5.615 0-5.497.381-8.19.381-2.692 0-6.907-3.864-9.014-3.864-2.107 0-6.907 6.322-8.546 7.844-1.639 1.522-1.756 5.854-2.927 8.312-1.171 2.459-9.132-.468-10.42.352-1.287.819-.468 1.17-1.873 2.575-1.405 1.405-3.278 1.639-3.161 2.342.117.702 3.395 2.809 3.395 5.034 0 2.224-3.746 3.161-4.917 4.331-1.17 1.171-5.268 5.62-5.268 6.322 0 .703.82 2.576.82 3.981 0 1.405-1.288 5.385-3.747 5.736-2.458.351-10.302.351-11.121.82-.82.468-7.025 4.566-8.547 4.214-1.522-.351-4.448-4.097-3.161-4.917 1.288-.819 4.8-1.053 4.449-2.692-.351-1.639-1.99-6.673-1.522-7.844.468-1.171 8.546 1.171 8.898.234.351-.937 1.17-3.863.351-4.683-.82-.819-3.278-3.278-3.278-4.566 0-1.288 3.278-2.458 3.278-3.629 0-1.171-.351-8.78.819-10.419 1.171-1.639 7.844-.82 8.312-1.991.469-1.17 2.108-8.429 1.639-9.834-.468-1.405-7.492-4.331-7.96-7.024-.469-2.693-3.513-5.268-4.683-5.502-1.171-.234-3.63-2.459-6.556-1.522-2.927.936-7.961 6.556-9.834 6.556-1.874 0-4.566-4.683-2.927-5.269 1.639-.585 3.395-5.853 5.619-5.97 2.225-.117 4.683-8.195 8.078-8.546 3.395-.352 16.624-11.239 21.776-11.239 5.151 0 13.58.234 14.399-4.566.82-4.8-5.151-12.059-5.736-14.283s-3.863-8.663-5.971-8.663c-2.107 0-11.122-5.034-14.868-4.917-3.746.117-10.302 2.458-13.229 4.917-2.927 2.458-8.312 3.98-9.132 3.98-.819 0-19.551 11.824-23.765 10.654-4.215-1.171-2.576-7.376-1.171-11.707 1.405-4.332 8.078-7.961 6.322-9.366-1.756-1.405-14.634.585-15.688 2.927-1.053 2.341-3.746 11.707-6.907 14.048-3.161 2.342-14.42 8.244-10.876 10.016 3.544 1.772 4.726 6.498 2.954 6.498-1.772 0-15.948 1.476-17.277 3.544-1.329 2.067-4.135 2.51-6.054 2.215-1.92-.296-5.021-11.666-6.645-13.143-1.625-1.476-6.202-3.986-7.088-5.611-.886-1.624 2.805-6.94 1.329-9.598-1.477-2.658-7.826-6.497-9.894-6.645-2.067-.148-6.645-2.658-6.645-4.135 0-1.476 3.692-5.02 3.987-6.349.296-1.329.591-5.316.739-6.645.147-1.329 7.826-5.168 10.484-5.168 2.658 0 7.678 3.248 10.779 2.658 3.101-.591 9.972-8.454 10.78-9.598 1.772-2.511 10.189-1.625 12.699-4.578 2.51-2.953 1.329-7.088 3.101-9.894 1.772-2.805 10.779 5.021 14.028 1.92 3.249-3.101 2.215-8.269.295-10.336-1.919-2.068-6.94-5.169-8.86-7.384-1.919-2.215-2.805-7.531-5.463-9.45-2.658-1.92-12.699-4.135-12.699-9.746 0-5.611 5.463-9.451 9.893-9.451 4.43 0 9.598 5.464 13.438 7.384 3.839 1.919 10.484 3.101 12.256 5.611 1.772 2.51-1.92 4.873 1.92 6.497 3.839 1.624 14.028 13.585 14.028 18.163 0 4.577.443 18.606 12.551 20.082 12.109 1.477 24.365 2.954 25.989.591 1.624-2.363 3.101-15.653 9.155-16.686 6.055-1.034 14.471-.296 16.539 3.987 2.067 4.282-4.283 16.834-4.135 20.377.148 3.544-1.181 6.645.886 7.384 2.067.738 5.316 1.919 5.316 4.43 0 2.51-2.067 4.873-1.772 7.383.295 2.51 9.155 3.691 9.451 5.316.295 1.624-2.068 12.256-1.182 13.585.886 1.329 4.135 5.759 6.202 5.02 2.067-.738 2.51-6.644 7.974-6.644s8.712 9.45 10.189 10.779c1.476 1.329 1.329 4.135 3.691 4.578 2.363.443 4.726 0 8.86.443 4.135.443 9.451 11.37 13.733 13.585 4.282 2.215 5.008-1.253 8.411-.627z" fill="coral" data-name="tholian"/>
    <path d="M-78.04 88.448c-2.1 1.007-6.906.931-7.992-.233-1.087-1.164-2.018-2.483-2.794-1.863-.776.621-2.948 3.182-4.19 3.182-1.241 0-1.009-1.552-2.173-1.552-1.163 0-3.181.543-3.647.078-.465-.466 1.708-1.94.233-2.251-1.474-.31-4.811.466-5.897.311-1.086-.156-1.862-2.794-2.638-3.415-.776-.62-1.242-.853.077-3.724 1.319-2.871 2.794-4.811 5.82-4.811 3.026 0 8.458-2.25 9.855-3.88 1.396-1.629 1.629-2.948 3.569-2.948s1.63 2.25 2.794 2.25c1.163 0 2.327-1.242 3.879-1.242s5.587 2.328 6.208 3.259c.621.931-1.164 6.13-1.009 7.993.155 1.862 1.087 5.043.776 6.285-.31 1.241-.931 1.629-2.871 2.561z" fill="turquoise" data-name="talar"/>
    <path d="M101.804 231.89c-2.897 0-7.551-2.517-7.551-5.537s.629-8.431-.252-9.186c-.88-.755-4.781-5.412-5.914-5.789-1.133-.378-2.265-2.265-2.769-3.775-.503-1.51-1.258-3.775-.503-5.286.755-1.51 1.384-3.271 1.133-4.781-.252-1.511 1.761-3.146 2.894-3.021 1.133.126 2.643 1.51 3.901.755s3.649-2.013 5.537-.629 7.047 2.391 7.425 3.146c.377.755 5.411.755 7.047.881 1.636.126 8.053 1.51 8.557 2.517.503 1.007 2.768-.252 3.523-.503.755-.252 4.027-2.643 6.544-2.014 2.517.629 3.272 2.517 3.272 3.398 0 .881 2.013 1.258 2.894 2.139.881.881.755 2.894-.881 3.775-1.636.881-3.397-.629-4.53 1.133-1.132 1.762-3.02 2.391-4.027 4.278-1.007 1.888-4.027 3.65-4.404 4.531-.378.881-2.769 4.53-2.643 5.411.126.881 4.279 4.546 3.398 5.167-.881.621-4.908-1.895-5.411-.511-.504 1.384-.755 2.391-.755 3.146 0 .755-1.259 1.384-3.272 1.384-2.014 0-5.537-1.762-7.551-1.762-2.013 0-2.265 1.133-5.662 1.133z" fill="goldenrod" data-name="gorn"/>
</svg>
